<svg xmlns="http://www.w3.org/2000/svg" width="121.162" height="39.884" viewBox="0 0 121.162 39.884">
  <g id="Google_2015_logo" transform="translate(-0.36 -0.47)">
    <path id="Path_284" data-name="Path 284" d="M91.246,34.967a10,10,0,1,1-10-9.967A9.844,9.844,0,0,1,91.246,34.967Zm-4.377,0a5.636,5.636,0,1,0-11.243,0,5.636,5.636,0,1,0,11.243,0Z" transform="translate(-39.036 -13.508)" fill="#ea4335"/>
    <path id="Path_285" data-name="Path 285" d="M139.246,34.967a10,10,0,1,1-10-9.967A9.843,9.843,0,0,1,139.246,34.967Zm-4.377,0a5.636,5.636,0,1,0-11.243,0,5.636,5.636,0,1,0,11.243,0Z" transform="translate(-65.467 -13.508)" fill="#fbbc05"/>
    <path id="Path_286" data-name="Path 286" d="M186.336,25.6V43.5c0,7.36-4.341,10.366-9.472,10.366a9.491,9.491,0,0,1-8.834-5.873l3.81-1.586a5.505,5.505,0,0,0,5.019,3.536c3.285,0,5.32-2.027,5.32-5.842V42.664h-.153a6.786,6.786,0,0,1-5.248,2.265,9.973,9.973,0,0,1,0-19.929,6.907,6.907,0,0,1,5.248,2.229h.153V25.607h4.156ZM182.49,35c0-3.509-2.341-6.075-5.32-6.075A5.763,5.763,0,0,0,171.62,35a5.72,5.72,0,0,0,5.549,6C180.149,41.006,182.49,38.476,182.49,35Z" transform="translate(-91.888 -13.508)" fill="#4285f4"/>
    <path id="Path_287" data-name="Path 287" d="M219.769,3V32.208H215.5V3Z" transform="translate(-118.468 -1.393)" fill="#34a853"/>
    <path id="Path_288" data-name="Path 288" d="M243.887,38.241l3.4,2.265a9.92,9.92,0,0,1-8.3,4.417,9.751,9.751,0,0,1-9.89-9.967c0-5.927,4.264-9.967,9.4-9.967,5.172,0,7.7,4.116,8.529,6.34l.454,1.132L234.15,37.981A5.072,5.072,0,0,0,238.98,41a5.688,5.688,0,0,0,4.907-2.759Zm-10.456-3.586,8.906-3.7a3.859,3.859,0,0,0-3.7-2.112A5.467,5.467,0,0,0,233.431,34.655Z" transform="translate(-125.951 -13.502)" fill="#ea4335"/>
    <path id="Path_289" data-name="Path 289" d="M16.056,18.866V14.638H30.3a14.01,14.01,0,0,1,.211,2.552,13.964,13.964,0,0,1-3.662,9.89A14.151,14.151,0,0,1,16.06,31.421,15.693,15.693,0,0,1,.36,15.945,15.693,15.693,0,0,1,16.06.47a14.746,14.746,0,0,1,10.6,4.264L23.681,7.718A10.778,10.778,0,0,0,16.056,4.7a11.1,11.1,0,0,0-11.1,11.247,11.1,11.1,0,0,0,11.1,11.247,10.353,10.353,0,0,0,7.814-3.1,8.764,8.764,0,0,0,2.292-5.235Z" transform="translate(0 0)" fill="#4285f4"/>
  </g>
</svg>
