    <svg xmlns="http://www.w3.org/2000/svg" class="hidden" >




        <!-- header -->


        <symbol id="user" xmlns="http://www.w3.org/2000/svg" stroke-width="1.5" viewBox="0 0 24 24" fill="none">
            <path d="M5 20V19C5 15.134 8.13401 12 12 12V12C15.866 12 19 15.134 19 19V20" stroke="currentColor"
                stroke-linecap="round" stroke-linejoin="round" />
            <path
                d="M12 12C14.2091 12 16 10.2091 16 8C16 5.79086 14.2091 4 12 4C9.79086 4 8 5.79086 8 8C8 10.2091 9.79086 12 12 12Z"
                stroke="currentColor" stroke-linecap="round" stroke-linejoin="round" />
        </symbol>

        <symbol id="moon" class="text-white" xmlns="http://www.w3.org/2000/svg" fill="none" viewBox="0 0 24 24"
            stroke-width="1.5" stroke="currentColor" class="size-6">
            <path stroke-linecap="round" stroke-linejoin="round"
                d="M21.752 15.002A9.72 9.72 0 0 1 18 15.75c-5.385 0-9.75-4.365-9.75-9.75 0-1.33.266-2.597.748-3.752A9.753 9.753 0 0 0 3 11.25C3 16.635 7.365 21 12.75 21a9.753 9.753 0 0 0 9.002-5.998Z" />
        </symbol>

        <symbol id="sun" class="text-white" xmlns="http://www.w3.org/2000/svg" fill="none" viewBox="0 0 24 24"
            stroke-width="1.5" stroke="currentColor" class="size-6">
            <path stroke-linecap="round" stroke-linejoin="round"
                d="M12 3v2.25m6.364.386-1.591 1.591M21 12h-2.25m-.386 6.364-1.591-1.591M12 18.75V21m-4.773-4.227-1.591 1.591M5.25 12H3m4.227-4.773L5.636 5.636M15.75 12a3.75 3.75 0 1 1-7.5 0 3.75 3.75 0 0 1 7.5 0Z" />
        </symbol>

        <symbol id="search" xmlns="http://www.w3.org/2000/svg" fill="none" viewBox="0 0 24 24" stroke-width="1.5"
            stroke="currentColor" class="size-6">
            <path stroke-linecap="round" stroke-linejoin="round"
                d="m21 21-5.197-5.197m0 0A7.5 7.5 0 1 0 5.196 5.196a7.5 7.5 0 0 0 10.607 10.607Z" />
        </symbol>


        <symbol id="more-menu" xmlns="http://www.w3.org/2000/svg" viewBox="0 0 32 32" id="i-ellipsis-horizontal"
            fill="none" stroke="#fff" stroke-linecap="round" stroke-linejoin="round" stroke-width="1">
            <circle cx="5" cy="16" r="3" />
            <circle cx="16" cy="16" r="3" />
            <circle cx="28" cy="16" r="3" />
        </symbol>


        <!-- header -->




        <!-- home -->


        <symbol id="adjustments" xmlns="http://www.w3.org/2000/svg" fill="none" viewBox="0 0 24 24" stroke-width="1.5"
            stroke="currentColor" class="size-6">
            <path stroke-linecap="round" stroke-linejoin="round"
                d="M10.5 6h9.75M10.5 6a1.5 1.5 0 1 1-3 0m3 0a1.5 1.5 0 1 0-3 0M3.75 6H7.5m3 12h9.75m-9.75 0a1.5 1.5 0 0 1-3 0m3 0a1.5 1.5 0 0 0-3 0m-3.75 0H7.5m9-6h3.75m-3.75 0a1.5 1.5 0 0 1-3 0m3 0a1.5 1.5 0 0 0-3 0m-9.75 0h9.75" />
        </symbol>


        <symbol id="videos" xmlns="http://www.w3.org/2000/svg" version="1.0" viewBox="0 0 250 217">
            <path fill-opacity=".5"
                d="M69.8 92.7c15.6.2 40.8.2 56 0 15.2-.1 2.5-.2-28.3-.2s-43.3.1-27.7.2m84.7 43.3c0 23.4.1 32.9.2 21.3.2-11.7.2-30.9 0-42.5-.1-11.7-.2-2.2-.2 21.2M91 159c-.9.6-1 1-.3 1 .6 0 1.5-.5 1.8-1 .8-1.2.4-1.2-1.5 0" />
            <g stroke-width="0">
                <path
                    d="M95.3 23.4c.4 1 0 1.2-1.4.9-1.4-.4-1.9 0-1.9 1.6 0 1.1-.4 2.1-1 2.1-.5 0-1 1.8-1 4v4h121v103h3.4c1.9 0 4.1-.7 5-1.5.8-.9 1.9-1.7 2.3-1.8s.7-.5.6-.9c-.2-.4.4-.5 1.2-.2 1.3.5 1.5-6.1 1.5-54.1 0-46.1-.2-54.6-1.4-54.2-1.8.7-3.6-1.1-2.9-2.9.4-1.2-9.4-1.4-62.7-1.4-53.5 0-63.1.2-62.7 1.4" />
                <path
                    d="M60.5 52.3c-1.2 1.1-1.4 1.7-.5 1.3.8-.4.7-.1-.3.7-1.3 1.1-1.7 2.6-1.5 5.4l.3 3.8h125v103l3.3.3c1.9.2 3.2-.1 3.2-.8 0-.6.5-.8 1-.5.6.3 1 .1 1-.5s.4-.9.8-.6c1.2.7 4.4-3.3 3.7-4.4-.4-.6-.1-1 .4-1 .8 0 1.1-15.8 1.1-51s-.3-51-1.1-51c-.5 0-.7-.5-.4-1 .3-.6.1-1-.6-1s-.9-.3-.6-.7c.4-.3.2-1.2-.4-1.9-.9-1.1-13.7-1.4-66.1-1.4-35.8 0-65.3-.2-65.7-.4-.3-.2-1.5.6-2.6 1.7" />
                <path
                    d="M30.6 78.5c-.8.9-1.9 1.7-2.3 1.8s-.7.7-.7 1.4c.1.6-.5.9-1.2.6-1.2-.4-1.4 8.1-1.4 53.7s.2 54.1 1.4 53.7c1.4-.6 3.6 1 3.6 2.7 0 .5-.7.1-1.5-1-.8-1-1.5-1.4-1.5-.9-.1 3.4 1.7 3.5 69.7 3.5 61.5 0 67.4-.1 69.2-1.7 1.1-.9 1.8-2 1.5-2.5-.3-.4 0-.8.6-.8.7 0 .9-.7.6-1.6-.3-.8-.2-1.2.4-.9.7.4 1-17.1 1-50.5 0-30.3-.4-50.9-.9-50.6-.5.4-.7-.3-.4-1.3.6-2.3-3.2-6.5-5.3-5.7-.8.3-1.4.1-1.4-.4 0-.6-23.7-1-64.9-1-57.1 0-65.1.2-66.5 1.5M155.5 136v44.5H39l-.2-44.5-.3-44.5h117z" />
                <path
                    d="M75.5 105c.3.5.1 1-.4 1-.8 0-1.1 9.3-1.1 29.1 0 24.5.2 29.3 1.5 30.5.9.9 1.5 1.1 1.5.4 0-.6.4-.9.9-.6s1.1 0 1.4-.8c.3-.7 1.9-1.6 3.6-1.9 1.8-.4 4.3-1.8 5.7-3.2 2.7-2.7 3.9-3.2 2.9-1.3-.3.7.2.3 1.1-1 .9-1.2 2.3-2.2 3.1-2.2s1.1-.4.8-1c-.4-.6.1-.7 1.1-.3q1.65.6 3.6-1.8c1.1-1.3 1.7-1.7 1.3-.9-.4 1-.2.9.8-.2.8-1 1.7-1.5 2-1.1.4.3 1.6-.5 2.8-1.8 1.1-1.3 2.8-2.3 3.6-2.1.9.2 1.2-.1.8-.9-.5-.7-.3-1 .6-.7.8.3 2-.2 2.7-1.1.8-.9 1.1-1 .7-.4-.4.9-.1 1.1.9.7.9-.3 1.4-1 1.1-1.4-.3-.5.8-1.1 2.5-1.5 1.6-.4 3.3-1.1 3.6-1.7.5-.7.2-.8-.6-.3s-1.1.4-.6-.3c.4-.6 1.4-.8 2.3-.5 1.1.4 1.4.3.9-.5s-.2-1 .8-.6c1.1.4 1.6 0 1.6-1 0-.9-.6-1.6-1.4-1.6s-2.2-.8-3.2-1.8c-1-.9-2-1.6-2.3-1.6-.3.1-.5-.3-.3-.8.2-.6-.6-.8-1.8-.5-1.3.3-1.8.1-1.3-.6.4-.7 0-.8-1.1-.4-.9.4-1.4.3-1.1-.2s-.4-1.2-1.5-1.6c-1.1-.3-2-1.1-2-1.7 0-.5-.7-.8-1.5-.4-.8.3-1.5.1-1.5-.5s-.5-.7-1-.4c-.6.3-1.3-.1-1.6-1-.4-.9-1.3-1.4-2.1-1.1s-1.2.2-.9-.3c.7-1-2.2-2.3-3.4-1.6-.5.3-1.2-.4-1.5-1.6-.4-1.2-1.2-1.8-2.1-1.5-.8.3-1.4 0-1.4-.6s-.3-.8-.7-.5c-.3.4-1.3-.2-2.1-1.4-.9-1.3-2.1-1.9-3.3-1.6-1.1.3-1.9.1-1.9-.5 0-.5-.4-.7-.9-.4s-1.1-.3-1.4-1.4c-.3-1.3-1-1.8-2.1-1.4-1 .4-1.6.1-1.6-.7 0-.7-.3-1-.6-.7-.3.4-1.4-.2-2.5-1.3-2-2-4.5-2.6-3.4-.9" />
            </g>
            <path fill-opacity=".6"
                d="M57.3 59c0 3 .2 4.3.4 2.7.2-1.5.2-3.9 0-5.5-.2-1.5-.4-.2-.4 2.8m7 17.7c18 .2 47.4.2 65.5 0 18-.1 3.2-.2-32.8-.2s-50.8.1-32.7.2M170.5 136c0 28.3.1 39.9.2 25.8.2-14.2.2-37.4 0-51.5-.1-14.2-.2-2.6-.2 25.7m-50.5-7.6c0 .2.7.7 1.6 1 .8.3 1.2.2.9-.4-.6-1-2.5-1.4-2.5-.6M77 167c-.9.6-1 1-.3 1 .6 0 1.5-.5 1.8-1 .8-1.2.4-1.2-1.5 0m108.3.7c.9.2 2.5.2 3.5 0 .9-.3.1-.5-1.8-.5s-2.7.2-1.7.5M26 191.4c0 .2.8 1 1.8 1.7 1.5 1.3 1.6 1.2.3-.4s-2.1-2.1-2.1-1.3" />
            <path fill-opacity=".7"
                d="m120.2 64.7 61.8.3.3 50.8.2 50.7v-102h-124zm-14.5 55.4c.7.7 1.5 1 1.8.7s-.2-.9-1.2-1.2c-1.4-.6-1.5-.5-.6.5m8.7 25.5c-1.8 1.4-1.8 1.5.4.4 1.2-.6 2.2-1.3 2.2-1.5 0-.8-.5-.6-2.6 1.1m-46.2 34.1c15.9.2 41.7.2 57.5 0 15.9-.1 2.9-.2-28.7-.2s-44.6.1-28.8.2" />
            <g fill-opacity=".9" stroke-opacity=".9" stroke-width="0">
                <path
                    d="M220.6 23.8c-.3.6.1 1.5.8 2.1.8.7 1.7.8 2 .3.3-.6-.1-1.5-.8-2.1-.8-.7-1.7-.8-2-.3M91.1 26.6c0 1.1.3 1.4.6.6.3-.7.2-1.6-.1-1.9-.3-.4-.6.2-.5 1.3m58.6 10.1 60.3.3.3 51.3.2 51.2.3-51.8.2-51.7-60.7.2-60.8.3z" />
                <path
                    d="M85.5 50.7c59.5.7 107.3.7 106.8 0-.2-.4-29.5-.6-65.1-.5-35.6.2-54.3.4-41.7.5m-26.4 1.7c-.8.9-.8 1.6-.2 2 .5.4 1.2.2 1.6-.4.3-.5.3-1-.2-1-.4 0-.1-.5.7-1s1-1 .4-1-1.7.6-2.3 1.4M25 81.4c0 .2.7.7 1.6 1 .8.3 1.2.2.9-.4-.6-1-2.5-1.4-2.5-.6m13.8 38.8c.1 16.1.3 36.5.5 45.3.1 8.8.4-4.4.5-29.3.1-24.8-.1-45.2-.5-45.2-.5 0-.7 13.2-.5 29.2m35.7-16.3c-.3.5 0 1.3.6 1.7.8.5.9.3.4-.6-.6-.9-.1-1 1.6-.5 1.9.5 2.1.4.9-.4-1.9-1.3-2.7-1.4-3.5-.2m8.1 4c-.3.5.1 1.1.9 1.4.9.4 1.2.1.8-.9-.6-1.6-1-1.7-1.7-.5m3.4 3.2c0 .5.5.7 1 .4.6-.3 1-.2 1 .4s.7.8 1.6.4c1.3-.5 1.3-.7.2-1.4-1.8-1.2-3.8-1.1-3.8.2m13.7 7.5c.2.7 1.2 1 2 .7 1.2-.5 1.4-.3.8.7-.5.9-.4 1.1.4.6 1.5-.9.7-2.2-1.8-2.9-1.3-.3-1.8-.1-1.4.9m13.3 6.3c0 .5.9 1.3 2 1.6 1.1.4 1.7 1.1 1.4 1.7-.4.7-.2.8.4.4 1.6-1 1.6-1.1-1.3-3-1.4-.9-2.5-1.2-2.5-.7m13 8.4c1.4.6 2.8 1.6 3.2 2.2.5.6.8.3.8-.6s-1-1.9-2.2-2.3c-3.6-.9-4.5-.6-1.8.7m-2.1 4.4c-.1.4-.1 1.1 0 1.5 0 .3-1.3.9-2.9 1.3-1.7.4-2.8 1.1-2.5 1.6.6.9 5.9-1.4 7-3 .3-.5.1-1.2-.5-1.6-.5-.3-1.1-.3-1.1.2m-8.3 5.1c-.3.5.1.9.9.9s1.2-.4.9-.9c-.3-.4-.7-.8-.9-.8s-.6.4-.9.8m-3.1 2.2c.3.5.8 1 1.1 1 .2 0 .4-.5.4-1 0-.6-.5-1-1.1-1-.5 0-.7.4-.4 1m-3.8 2c-.9 1.1-1.2 2-.7 2 .6 0 1.3-.7 1.6-1.5.4-.8 1.1-1.2 1.7-.8.6.3.7.1.3-.5-.9-1.5-.9-1.5-2.9.8m-7.2 3.9c-.3.5-.2 1.2.3 1.5s.9-.1.9-.9c0-1.7-.3-1.9-1.2-.6m-5.1 2.9c.4.7.1 1.2-.8 1.2-.8 0-1.7.4-2 .9-.8 1.3 2.2.7 3.5-.6.8-.8.7-1.3-.2-1.8-.8-.5-1-.4-.5.3m-8.8 5.1c-.4.5-.2 1.2.3 1.5.5.4 1.2.2 1.5-.3.4-.5.2-1.2-.3-1.5-.5-.4-1.2-.2-1.5.3m-5.1 3.8c-1.1.3-2.4.9-2.9 1.4s.5.4 2.4-.1c5.1-1.5 5.5-2.5.5-1.3m112.5.8c0 .8.2 1.5.4 1.5s.6-.7 1-1.5c.3-.8.1-1.5-.4-1.5-.6 0-1 .7-1 1.5M26.4 190.1c-.4.7-.3.9.4.5.6-.3 1.5.2 2.1 1.1.6 1 1.1 1.3 1.1.7 0-2-2.7-3.7-3.6-2.3M165 193c0 .5.7.7 1.5.4.8-.4 1.5-.8 1.5-1s-.7-.4-1.5-.4-1.5.4-1.5 1" />
            </g>
            <path fill-opacity=".4"
                d="M222 23.4c0 .2.8 1 1.8 1.7 1.5 1.3 1.6 1.2.3-.4s-2.1-2.1-2.1-1.3M198.5 108c0 28.9.1 40.7.2 26.2.2-14.4.2-38 0-52.5-.1-14.4-.2-2.6-.2 26.3M73.4 135c0 16.8.2 23.6.3 15.2.2-8.3.2-22.1 0-30.5-.1-8.3-.3-1.5-.3 15.3" />
            <path fill-opacity=".1"
                d="M119.2 37.7c16.4.2 43.2.2 59.5 0 16.4-.1 3-.2-29.7-.2s-46.1.1-29.8.2M209.5 89c0 27.8.1 39.1.2 25.3.2-13.9.2-36.7 0-50.5-.1-13.9-.2-2.6-.2 25.2m-169 47c0 23.4.1 32.9.2 21.3.2-11.7.2-30.9 0-42.5-.1-11.7-.2-2.2-.2 21.2m84.5-5.6c0 .3.9 1 2 1.6s2 .8 2 .6c0-.3-.9-1-2-1.6s-2-.8-2-.6m-44.1 35.3c-1.3 1.6-1.2 1.7.4.4.9-.7 1.7-1.5 1.7-1.7 0-.8-.8-.3-2.1 1.3" />
            <path fill-opacity=".2"
                d="M89.2 32c0 1.9.2 2.7.5 1.7.2-.9.2-2.5 0-3.5-.3-.9-.5-.1-.5 1.8m5.1 17.7c18 .2 47.4.2 65.5 0 18-.1 3.2-.2-32.8-.2s-50.8.1-32.7.2m16.7 72.7c0 .3.9 1 2 1.6s2 .8 2 .6c0-.3-.9-1-2-1.6s-2-.8-2-.6m19.2 12.6c0 1.4.2 1.9.5 1.2.2-.6.2-1.8 0-2.5-.3-.6-.5-.1-.5 1.3m-9.8 7.6c-1.8 1.4-1.8 1.5.4.4 1.2-.6 2.2-1.3 2.2-1.5 0-.8-.5-.6-2.6 1.1M197 162c-.6 1.1-.8 2-.6 2 .3 0 1-.9 1.6-2s.8-2 .6-2c-.3 0-1 .9-1.6 2" />
            <path fill-opacity=".3"
                d="m59.4 51.2-1.9 2.3 2.3-1.9c2.1-1.8 2.7-2.6 1.9-2.6-.2 0-1.2 1-2.3 2.2m38.3 63.9c.7.7 1.5 1 1.8.7s-.2-.9-1.2-1.2c-1.4-.6-1.5-.5-.6.5m95.8 50.9c-.3.6.1.7.9.4 1.8-.7 2.1-1.4.7-1.4-.6 0-1.3.4-1.6 1m-25 25.1c-.4.6-.5 1.2-.2 1.5.2.3.7-.2 1-1.1.7-1.7.1-2-.8-.4" />
            <path fill="#400000" d="M166 78.4c0 .2.8 1 1.8 1.7 1.5 1.3 1.6 1.2.3-.4s-2.1-2.1-2.1-1.3" />
            <path fill-opacity=".8"
                d="M211.8 139.7c1.2.2 3 .2 4 0 .9-.3-.1-.5-2.3-.4-2.2 0-3 .2-1.7.4M99 154c-.8.5-1 1-.5 1 .6 0 1.7-.5 2.5-1s1.1-1 .5-1c-.5 0-1.7.5-2.5 1" />
        </symbol>

        <symbol id="imdb" xmlns="http://www.w3.org/2000/svg" xmlns:xlink="http://www.w3.org/1999/xlink" version="1.1"
            preserveAspectRatio="xMidYMid meet" viewBox="0 0 575 289.83">

            <defs>
                <path
                    d="M575 24.91C573.44 12.15 563.97 1.98 551.91 0C499.05 0 76.18 0 23.32 0C10.11 2.17 0 14.16 0 28.61C0 51.84 0 237.64 0 260.86C0 276.86 12.37 289.83 27.64 289.83C79.63 289.83 495.6 289.83 547.59 289.83C561.65 289.83 573.26 278.82 575 264.57C575 216.64 575 48.87 575 24.91Z"
                    id="d1pwhf9wy2" />
                <path d="M69.35 58.24L114.98 58.24L114.98 233.89L69.35 233.89L69.35 58.24Z" id="g5jjnq26yS" />
                <path
                    d="M201.2 139.15C197.28 112.38 195.1 97.5 194.67 94.53C192.76 80.2 190.94 67.73 189.2 57.09C185.25 57.09 165.54 57.09 130.04 57.09L130.04 232.74L170.01 232.74L170.15 116.76L186.97 232.74L215.44 232.74L231.39 114.18L231.54 232.74L271.38 232.74L271.38 57.09L211.77 57.09L201.2 139.15Z"
                    id="i3Prh1JpXt" />
                <path
                    d="M346.71 93.63C347.21 95.87 347.47 100.95 347.47 108.89C347.47 115.7 347.47 170.18 347.47 176.99C347.47 188.68 346.71 195.84 345.2 198.48C343.68 201.12 339.64 202.43 333.09 202.43C333.09 190.9 333.09 98.66 333.09 87.13C338.06 87.13 341.45 87.66 343.25 88.7C345.05 89.75 346.21 91.39 346.71 93.63ZM367.32 230.95C372.75 229.76 377.31 227.66 381.01 224.67C384.7 221.67 387.29 217.52 388.77 212.21C390.26 206.91 391.14 196.38 391.14 180.63C391.14 174.47 391.14 125.12 391.14 118.95C391.14 102.33 390.49 91.19 389.48 85.53C388.46 79.86 385.93 74.71 381.88 70.09C377.82 65.47 371.9 62.15 364.12 60.13C356.33 58.11 343.63 57.09 321.54 57.09C319.27 57.09 307.93 57.09 287.5 57.09L287.5 232.74L342.78 232.74C355.52 232.34 363.7 231.75 367.32 230.95Z"
                    id="a4ov9rRGQm" />
                <path
                    d="M464.76 204.7C463.92 206.93 460.24 208.06 457.46 208.06C454.74 208.06 452.93 206.98 452.01 204.81C451.09 202.65 450.64 197.72 450.64 190C450.64 185.36 450.64 148.22 450.64 143.58C450.64 135.58 451.04 130.59 451.85 128.6C452.65 126.63 454.41 125.63 457.13 125.63C459.91 125.63 463.64 126.76 464.6 129.03C465.55 131.3 466.03 136.15 466.03 143.58C466.03 146.58 466.03 161.58 466.03 188.59C465.74 197.84 465.32 203.21 464.76 204.7ZM406.68 231.21L447.76 231.21C449.47 224.5 450.41 220.77 450.6 220.02C454.32 224.52 458.41 227.9 462.9 230.14C467.37 232.39 474.06 233.51 479.24 233.51C486.45 233.51 492.67 231.62 497.92 227.83C503.16 224.05 506.5 219.57 507.92 214.42C509.34 209.26 510.05 201.42 510.05 190.88C510.05 185.95 510.05 146.53 510.05 141.6C510.05 131 509.81 124.08 509.34 120.83C508.87 117.58 507.47 114.27 505.14 110.88C502.81 107.49 499.42 104.86 494.98 102.98C490.54 101.1 485.3 100.16 479.26 100.16C474.01 100.16 467.29 101.21 462.81 103.28C458.34 105.35 454.28 108.49 450.64 112.7C450.64 108.89 450.64 89.85 450.64 55.56L406.68 55.56L406.68 231.21Z"
                    id="fk968BpsX" />
            </defs>
            <g>
                <g>
                    <g>
                        <use xlink:href="#d1pwhf9wy2" opacity="1" fill="#f6c700" fill-opacity="1" />
                        <g>
                            <use xlink:href="#d1pwhf9wy2" opacity="1" fill-opacity="0" stroke="#000000" stroke-width="1"
                                stroke-opacity="0" />
                        </g>
                    </g>
                    <g>
                        <use xlink:href="#g5jjnq26yS" opacity="1" fill="#000000" fill-opacity="1" />
                        <g>
                            <use xlink:href="#g5jjnq26yS" opacity="1" fill-opacity="0" stroke="#000000" stroke-width="1"
                                stroke-opacity="0" />
                        </g>
                    </g>
                    <g>
                        <use xlink:href="#i3Prh1JpXt" opacity="1" fill="#000000" fill-opacity="1" />
                        <g>
                            <use xlink:href="#i3Prh1JpXt" opacity="1" fill-opacity="0" stroke="#000000" stroke-width="1"
                                stroke-opacity="0" />
                        </g>
                    </g>
                    <g>
                        <use xlink:href="#a4ov9rRGQm" opacity="1" fill="#000000" fill-opacity="1" />
                        <g>
                            <use xlink:href="#a4ov9rRGQm" opacity="1" fill-opacity="0" stroke="#000000" stroke-width="1"
                                stroke-opacity="0" />
                        </g>
                    </g>
                    <g>
                        <use xlink:href="#fk968BpsX" opacity="1" fill="#000000" fill-opacity="1" />
                        <g>
                            <use xlink:href="#fk968BpsX" opacity="1" fill-opacity="0" stroke="#000000" stroke-width="1"
                                stroke-opacity="0" />
                        </g>
                    </g>
                </g>
            </g>
        </symbol>

        <symbol id="heart" xmlns="http://www.w3.org/2000/svg" fill="none" viewBox="0 0 24 24" stroke-width="1.5"
            stroke="currentColor" class="size-6">
            <path stroke-linecap="round" stroke-linejoin="round"
                d="M21 8.25c0-2.485-2.099-4.5-4.688-4.5-1.935 0-3.597 1.126-4.312 2.733-.715-1.607-2.377-2.733-4.313-2.733C5.1 3.75 3 5.765 3 8.25c0 7.22 9 12 9 12s9-4.78 9-12Z" />
        </symbol>

        <symbol id="heart-fill" xmlns="http://www.w3.org/2000/svg" fill="currentColor" viewBox="0 0 24 24" class="size-6">
            <path d="M12 21.35l-1.45-1.32C5.4 15.36 2 12.28 
    2 8.5 2 5.42 4.42 3 7.5 3c1.74 0 
    3.41 0.81 4.5 2.09C13.09 3.81 
    14.76 3 16.5 3 19.58 3 22 5.42 
    22 8.5c0 3.78-3.4 6.86-8.55 
    11.54L12 21.35z" />
        </symbol>

        <symbol id="eye" xmlns="http://www.w3.org/2000/svg" fill="none" viewBox="0 0 24 24" stroke-width="1.5"
            stroke="currentColor" class="size-6">
            <path stroke-linecap="round" stroke-linejoin="round"
                d="M2.036 12.322a1.012 1.012 0 0 1 0-.639C3.423 7.51 7.36 4.5 12 4.5c4.638 0 8.573 3.007 9.963 7.178.07.207.07.431 0 .639C20.577 16.49 16.64 19.5 12 19.5c-4.638 0-8.573-3.007-9.963-7.178Z" />
            <path stroke-linecap="round" stroke-linejoin="round" d="M15 12a3 3 0 1 1-6 0 3 3 0 0 1 6 0Z" />
        </symbol>


        <symbol id="left-link" xmlns="http://www.w3.org/2000/svg" fill="none" viewBox="0 0 24 24" stroke-width="1.5"
            stroke="currentColor" class="size-6">
            <path stroke-linecap="round" stroke-linejoin="round" d="M15.75 19.5 8.25 12l7.5-7.5" />
        </symbol>


        <symbol id="play" xmlns="http://www.w3.org/2000/svg" class="svg-icon" fill="#ffc700" viewBox="0 0 1024 1024"
            version="1.1">
            <path
                d="M510.6 64.9C263.4 64.9 63 265.3 63 512.5S263.4 960 510.6 960s447.6-200.4 447.6-447.6S757.7 64.9 510.6 64.9z m174.9 464.3L374.9 708.6c-12.9 7.4-29-1.9-29-16.7V333.1c0-14.9 16.1-24.2 29-16.7l310.6 179.3c12.9 7.5 12.9 26.1 0 33.5z" />
        </symbol>


        <symbol id="trailer" xmlns="http://www.w3.org/2000/svg" version="1.0" viewBox="0 0 150.000000 150.000000"
            preserveAspectRatio="xMidYMid meet">

            <g transform="translate(0.000000,150.000000) scale(0.050000,-0.050000)" stroke="none">
                <path
                    d="M33 2684 c-38 -43 -50 -1915 -12 -1987 19 -34 49 -37 377 -37 l357 0 34 -90 c145 -381 767 -367 868 20 l16 60 644 5 644 6 22 47 c52 115 10 132 -334 132 l-309 0 0 755 c0 925 -14 973 -305 1094 -122 51 -1955 46 -2002 -5z m347 -244 l0 -100 -100 0 -100 0 0 100 0 100 100 0 100 0 0 -100z m460 0 l0 -100 -140 0 -140 0 0 100 0 100 140 0 140 0 0 -100z m480 0 l0 -100 -150 0 -150 0 0 87 c0 112 2 113 163 113 l137 0 0 -100z m460 0 l0 -100 -140 0 -140 0 0 100 0 100 140 0 140 0 0 -100z m289 13 c94 -90 91 -113 -19 -113 l-90 0 0 90 c0 108 15 111 109 23z m91 -763 l0 -470 -990 0 -990 0 0 470 0 470 990 0 990 0 0 -470z m-1780 -750 l0 -100 -100 0 -100 0 0 100 0 100 100 0 100 0 0 -100z m455 85 c-4 -8 -24 -53 -44 -100 -36 -83 -39 -85 -134 -85 l-97 0 0 100 0 100 142 0 c78 0 138 -7 133 -15z m506 -30 c310 -157 105 -636 -216 -503 -292 121 -222 522 96 546 17 1 71 -18 120 -43z m439 -55 c0 -93 -4 -100 -49 -100 -42 0 -131 131 -131 193 0 4 41 7 90 7 l90 0 0 -100z m380 0 l0 -100 -100 0 -100 0 0 100 0 100 100 0 100 0 0 -100z" />
                <path
                    d="M964 2036 c-34 -34 -34 -658 0 -692 45 -45 104 -24 359 128 359 213 359 217 -2 433 -259 156 -313 175 -357 131z m263 -288 c112 -62 112 -53 4 -116 -115 -68 -111 -70 -111 58 0 61 3 110 7 110 5 0 50 -23 100 -52z" />
            </g>
        </symbol>


        <symbol id="movie" xmlns="http://www.w3.org/2000/svg" xmlns:xlink="http://www.w3.org/1999/xlink" version="1.1"
            viewBox="0 0 256 256" xml:space="preserve">
            <g style=" stroke-width: 0; stroke-dasharray: none; stroke-linecap: butt; stroke-linejoin: miter; stroke-miterlimit: 10;  fill-rule: nonzero; opacity: 1;"
                transform="translate(1.4065934065934016 1.4065934065934016) scale(2.81 2.81)">
                <path
                    d="M 88 12.43 H 2 c -1.104 0 -2 0.896 -2 2 V 75.57 c 0 1.104 0.896 2 2 2 h 86 c 1.104 0 2 -0.896 2 -2 V 14.43 C 90 13.325 89.104 12.43 88 12.43 z M 12.763 43 H 4 v -6.75 h 8.763 V 43 z M 12.763 47 v 6.75 H 4 V 47 H 12.763 z M 12.763 32.25 H 4 V 25.5 h 8.763 V 32.25 z M 4 57.75 h 8.763 v 6.75 H 4 V 57.75 z M 16.763 16.43 h 56.475 V 73.57 H 16.763 V 16.43 z M 77.237 47 H 86 v 6.75 h -8.763 V 47 z M 77.237 43 v -6.75 H 86 V 43 H 77.237 z M 77.237 32.25 V 25.5 H 86 v 6.75 H 77.237 z M 77.237 57.75 H 86 v 6.75 h -8.763 V 57.75 z M 86 21.5 h -8.763 v -5.07 H 86 V 21.5 z M 12.763 16.43 v 5.07 H 4 v -5.07 H 12.763 z M 4 68.5 h 8.763 v 5.07 H 4 V 68.5 z M 77.237 73.57 V 68.5 H 86 v 5.07 H 77.237 z"
                    style=" stroke-width: 1; stroke-dasharray: none; stroke-linecap: butt; stroke-linejoin: miter; stroke-miterlimit: 10;  fill-rule: nonzero; opacity: 1;"
                    transform=" matrix(1 0 0 1 0 0) " stroke-linecap="round" />
                <path
                    d="M 34.25 59.004 c -0.35 0 -0.7 -0.092 -1.012 -0.275 c -0.612 -0.359 -0.988 -1.016 -0.988 -1.725 V 32.996 c 0 -0.709 0.376 -1.366 0.988 -1.725 c 0.611 -0.36 1.367 -0.368 1.987 -0.021 l 21.5 12.004 c 0.633 0.353 1.025 1.021 1.025 1.746 s -0.393 1.393 -1.025 1.746 l -21.5 12.004 C 34.922 58.919 34.586 59.004 34.25 59.004 z M 36.25 36.403 v 17.193 L 51.647 45 L 36.25 36.403 z"
                    style=" stroke-width: 1; stroke-dasharray: none; stroke-linecap: butt; stroke-linejoin: miter; stroke-miterlimit: 10;  fill-rule: nonzero; opacity: 1;"
                    transform=" matrix(1 0 0 1 0 0) " stroke-linecap="round" />
            </g>
        </symbol>


        <symbol id="calendar" xmlns="http://www.w3.org/2000/svg" version="1.0" viewBox="0 0 150.000000 150.000000"
            preserveAspectRatio="xMidYMid meet">

            <g transform="translate(0.000000,150.000000) scale(0.100000,-0.100000)" stroke="none">
                <path
                    d="M142 1438 c-7 -7 -12 -29 -12 -50 0 -38 0 -38 -39 -38 -22 0 -43 -6 -48 -12 -11 -17 -12 -1008 -1 -1030 8 -16 40 -18 401 -20 l392 -3 16 -48 c9 -26 21 -53 27 -59 7 -7 12 -16 12 -21 0 -12 73 -77 87 -77 6 0 18 -6 25 -13 7 -7 41 -19 76 -26 217 -43 404 144 361 362 -7 34 -19 68 -26 75 -7 7 -13 18 -13 25 0 6 -12 23 -26 38 l-25 26 -2 389 -2 389 -45 5 c-42 5 -45 7 -43 34 4 51 -12 66 -69 66 -66 0 -89 -18 -81 -66 l6 -34 -422 0 -423 0 3 33 c3 56 -7 67 -65 67 -29 0 -57 -5 -64 -12z m83 -113 c0 -68 -1 -70 -25 -70 -23 0 -25 4 -28 59 -4 73 2 88 30 84 21 -3 23 -8 23 -73z m986 35 c11 -52 -2 -105 -26 -105 -17 0 -20 8 -23 59 -2 32 -1 65 2 73 11 26 40 9 47 -27z m-1081 -65 c7 -8 10 -24 7 -34 -9 -37 14 -52 73 -49 l55 3 3 42 3 43 407 2 c224 2 413 1 420 -1 6 -2 12 -18 12 -36 0 -45 19 -57 82 -53 l53 3 3 43 c3 47 22 63 47 42 12 -10 15 -29 13 -74 l-3 -61 -610 0 -610 0 -3 59 c-2 32 -1 65 2 72 7 18 30 18 46 -1z m1166 -188 c9 -9 12 -497 3 -503 -4 -2 -10 0 -14 6 -3 5 -19 10 -35 10 -36 0 -47 16 -20 30 18 9 20 21 20 95 l0 85 -90 0 -90 0 0 -99 0 -99 -45 -11 c-35 -9 -60 -26 -103 -69 -55 -56 -78 -99 -89 -170 l-5 -32 -372 2 -371 3 1 375 1 375 519 6 c578 6 681 6 690 -4z m-88 -362 c3 -29 -1 -43 -14 -52 -39 -28 -84 -4 -84 46 0 37 19 52 60 49 33 -3 35 -5 38 -43z m43 -171 c8 -7 21 -14 27 -14 17 0 83 -84 100 -127 20 -49 20 -137 0 -186 -20 -50 -98 -128 -145 -146 -118 -44 -253 6 -319 116 -26 43 -28 57 -28 131 1 61 5 87 18 100 9 10 16 23 16 28 0 12 66 75 101 96 14 9 39 19 55 21 49 9 158 -3 175 -19z" />
                <path
                    d="M372 1058 c-5 -7 -12 -46 -14 -86 -5 -72 -5 -74 21 -84 27 -10 150 -6 170 6 14 9 15 115 1 150 -9 25 -13 26 -89 26 -51 0 -82 -4 -89 -12z m123 -88 l0 -45 -40 0 c-38 0 -40 2 -43 33 -5 53 3 64 45 60 38 -3 38 -3 38 -48z" />
                <path
                    d="M614 1062 c-6 -4 -13 -42 -16 -85 -5 -76 -4 -79 19 -88 33 -12 130 -11 154 1 16 9 19 22 19 76 0 97 -6 104 -93 104 -40 0 -77 -4 -83 -8z m121 -92 l0 -45 -40 0 c-38 0 -40 2 -43 33 -5 53 3 64 45 60 38 -3 38 -3 38 -48z" />
                <path
                    d="M837 1063 c-4 -3 -7 -43 -7 -88 l0 -82 38 -7 c60 -10 127 -7 140 6 12 12 17 134 6 162 -5 13 -23 16 -88 16 -46 0 -86 -3 -89 -7z m138 -93 c0 -44 -1 -45 -33 -48 -40 -4 -62 12 -62 43 0 47 10 56 54 53 l41 -3 0 -45z" />
                <path
                    d="M1077 1064 c-4 -4 -7 -44 -7 -90 0 -65 3 -83 16 -88 23 -9 137 -7 152 3 9 5 12 31 10 92 l-3 84 -80 3 c-45 1 -84 0 -88 -4z m117 -50 c22 -8 22 -80 0 -88 -47 -18 -84 1 -84 44 0 43 37 62 84 44z" />
                <path
                    d="M148 829 c-14 -8 -18 -24 -18 -79 0 -102 -2 -100 101 -100 l89 0 0 89 0 88 -37 7 c-56 9 -116 7 -135 -5z m118 -64 c3 -14 3 -36 0 -50 -5 -21 -12 -25 -46 -25 -34 0 -40 4 -46 26 -4 14 -2 36 5 50 8 19 18 24 46 24 29 0 36 -4 41 -25z" />
                <path
                    d="M367 824 c-14 -14 -8 -151 7 -163 9 -8 45 -11 98 -9 l83 3 0 85 0 85 -90 3 c-50 1 -94 0 -98 -4z m133 -85 l0 -50 -42 3 c-41 3 -43 5 -46 36 -5 52 3 62 48 62 l40 0 0 -51z" />
                <path
                    d="M599 820 c0 -5 0 -41 0 -80 0 -38 0 -75 0 -80 1 -7 35 -10 94 -8 l92 3 0 85 0 85 -92 3 c-59 2 -93 -1 -94 -8z m136 -80 l0 -45 -42 -3 -43 -3 0 51 0 51 43 -3 42 -3 0 -45z" />
                <path
                    d="M837 824 c-4 -4 -7 -45 -7 -91 l0 -83 84 0 c60 0 87 4 95 14 7 9 11 42 9 88 l-3 73 -85 3 c-47 1 -89 0 -93 -4z m139 -59 c3 -14 3 -36 0 -50 -5 -21 -12 -25 -45 -25 -34 0 -39 3 -44 29 -11 52 1 71 44 71 33 0 40 -4 45 -25z" />
                <path
                    d="M142 588 c-13 -13 -16 -95 -6 -147 l7 -32 86 3 86 3 3 86 3 86 -38 7 c-61 10 -128 7 -141 -6z m112 -34 c19 -7 22 -64 4 -82 -7 -7 -24 -12 -38 -12 -33 0 -50 17 -50 50 0 43 37 62 84 44z" />
                <path
                    d="M379 590 c-19 -11 -25 -113 -9 -155 9 -24 13 -25 94 -25 98 0 96 -2 96 101 0 65 -2 70 -26 79 -32 13 -134 12 -155 0z m116 -80 l0 -45 -40 0 c-38 0 -40 2 -43 33 -5 53 3 64 45 60 38 -3 38 -3 38 -48z" />
                <path
                    d="M614 590 c-20 -8 -21 -14 -17 -82 3 -40 6 -79 8 -85 3 -9 29 -13 83 -13 52 0 83 4 89 13 6 6 13 45 16 85 6 71 5 73 -19 82 -31 12 -131 12 -160 0z m121 -80 l0 -45 -40 0 c-38 0 -40 2 -43 33 -5 53 3 64 45 60 38 -3 38 -3 38 -48z" />
                <path
                    d="M1105 553 c-11 -3 -24 -9 -29 -14 -6 -5 -18 -9 -27 -9 -28 0 -93 -74 -113 -130 -19 -52 -19 -54 0 -108 25 -76 100 -151 152 -154 114 -6 169 13 218 78 33 43 45 96 38 162 -5 44 -13 59 -49 97 -58 59 -137 92 -190 78z m126 -84 c22 -17 46 -47 54 -66 17 -41 20 -99 5 -108 -5 -3 -10 -14 -10 -24 0 -32 -97 -101 -142 -101 -30 0 -95 40 -127 77 -26 31 -31 44 -31 91 0 99 61 162 159 162 45 0 59 -5 92 -31z" />
                <path
                    d="M1063 415 c-18 -20 -17 -25 15 -58 22 -23 28 -40 32 -90 4 -55 8 -62 28 -65 20 -3 22 1 24 55 3 94 0 105 -34 140 -35 36 -47 39 -65 18z" />
            </g>
        </symbol>


        <symbol id="blog" xmlns="http://www.w3.org/2000/svg" version="1.0" viewBox="0 0 150.000000 150.000000"
            preserveAspectRatio="xMidYMid meet">

            <g transform="translate(0.000000,150.000000) scale(0.100000,-0.100000)" stroke="none">
                <path
                    d="M373 1295 c-23 -10 -23 -13 -23 -182 0 -94 -3 -174 -7 -176 -5 -3 -42 -2 -83 2 -46 5 -83 3 -97 -3 l-23 -11 0 -328 0 -327 27 -31 c52 -59 48 -58 571 -59 526 -1 522 -2 575 59 l27 31 0 509 c0 490 -1 510 -19 516 -33 10 -924 11 -948 0z m905 -533 c2 -466 2 -469 -19 -488 -20 -18 -45 -19 -443 -24 -231 -3 -422 -4 -424 -3 -2 1 1 10 7 21 7 14 11 173 11 490 0 258 2 471 4 473 2 2 197 3 433 2 l428 -2 3 -469z m-933 -182 l0 -294 -34 -23 c-27 -18 -37 -20 -55 -11 -58 30 -56 16 -56 328 0 158 2 289 4 291 3 2 35 4 73 4 l68 -1 0 -294z" />
                <path
                    d="M518 1139 c-16 -9 -18 -26 -18 -129 0 -108 2 -120 19 -130 26 -13 296 -13 322 0 17 10 19 22 19 130 0 108 -2 120 -19 130 -25 13 -300 13 -323 -1z m277 -129 l0 -73 -115 0 -115 0 -3 63 c-2 35 -1 68 1 74 3 7 43 11 118 10 l114 -1 0 -73z" />
                <path
                    d="M940 1116 c-28 -13 -26 -52 3 -60 12 -3 68 -6 124 -6 78 0 105 4 117 15 19 19 11 42 -17 51 -32 10 -204 10 -227 0z" />
                <path
                    d="M933 963 c-22 -8 -15 -51 9 -59 28 -8 198 -9 225 0 28 9 36 32 17 51 -12 12 -39 15 -127 14 -62 0 -118 -3 -124 -6z" />
                <path
                    d="M822 790 c-254 -4 -314 -8 -321 -19 -12 -18 -4 -38 17 -46 21 -8 633 -8 654 0 19 8 29 28 20 42 -7 11 -49 34 -54 31 -2 -1 -144 -5 -316 -8z" />
                <path d="M500 590 l0 -30 345 0 345 0 0 30 0 30 -345 0 -345 0 0 -30z" />
                <path
                    d="M522 456 c-34 -19 -36 -48 -4 -61 22 -8 632 -8 654 0 24 9 29 32 12 50 -9 8 -18 15 -22 15 -165 6 -628 2 -640 -4z" />
            </g>
        </symbol>


        <symbol id="box-office" xmlns="http://www.w3.org/2000/svg" version="1.0" viewBox="0 0 150.000000 150.000000"
            preserveAspectRatio="xMidYMid meet">

            <g transform="translate(0.000000,150.000000) scale(0.100000,-0.100000)" stroke="none">
                <path
                    d="M600 1436 c-58 -7 -118 -17 -133 -24 -16 -7 -39 -12 -51 -12 -13 0 -29 -7 -36 -15 -7 -8 -20 -15 -30 -15 -10 0 -23 -7 -30 -15 -7 -8 -20 -15 -30 -15 -34 0 -50 -43 -50 -138 0 -48 4 -92 9 -97 6 -6 11 -101 12 -213 1 -188 0 -204 -17 -217 -18 -12 -19 -34 -22 -315 -2 -219 0 -306 9 -316 17 -21 1001 -21 1018 0 9 10 11 97 9 316 -3 279 -4 303 -21 315 -17 12 -18 31 -17 217 0 115 5 207 10 212 6 6 10 50 10 98 0 95 -16 138 -50 138 -10 0 -23 7 -30 15 -7 8 -20 15 -30 15 -10 0 -23 7 -30 15 -7 8 -23 15 -37 15 -13 0 -36 6 -51 14 -22 11 -264 39 -297 35 -5 -1 -57 -7 -115 -13z m260 -47 c30 -5 81 -12 112 -15 32 -4 63 -13 69 -20 6 -8 17 -14 25 -14 7 0 15 -3 17 -7 3 -5 -152 -8 -344 -8 -192 0 -349 1 -349 2 0 10 78 38 125 45 33 5 80 13 105 17 63 11 175 11 240 0z m325 -182 l0 -69 -445 0 -445 0 -3 57 c-2 32 -1 64 2 71 5 12 80 14 448 12 l443 -3 0 -68z m-657 -127 c4 -12 -4 -33 -44 -113 -8 -16 -14 -35 -14 -44 0 -8 -6 -27 -13 -41 -8 -15 -21 -42 -30 -60 -9 -19 -17 -40 -17 -49 0 -8 -6 -27 -14 -41 -8 -15 -17 -35 -20 -45 -4 -12 -14 -17 -28 -15 -23 3 -23 4 -26 203 -1 110 -1 204 2 210 6 16 199 11 204 -5z m420 -15 c2 -14 -4 -37 -12 -50 -9 -13 -16 -38 -16 -54 0 -46 -14 -45 -60 7 l-43 47 -77 0 c-76 0 -77 0 -112 -39 -47 -51 -61 -101 -56 -205 l3 -86 -60 -6 c-33 -3 -63 -4 -67 -2 -14 7 -9 50 7 63 8 7 15 22 15 34 0 12 7 31 15 42 8 10 15 29 15 40 0 12 7 27 15 34 8 7 15 22 15 34 0 12 7 31 15 42 8 10 15 29 15 40 0 12 7 27 15 34 8 7 15 20 15 30 0 9 2 19 4 21 2 2 82 3 178 2 l173 -1 3 -27z m207 -180 l0 -209 -120 3 c-66 1 -123 5 -127 9 -11 11 11 154 28 179 8 12 14 31 14 41 0 10 7 27 15 38 8 10 15 28 15 40 0 11 7 29 15 40 8 10 15 29 15 41 0 26 5 28 83 27 l62 0 0 -209z m-372 76 c64 -30 77 -60 77 -178 0 -62 -4 -103 -10 -103 -5 -1 -55 -1 -110 -1 -55 0 -105 0 -110 1 -6 0 -9 38 -6 103 4 119 18 152 73 178 46 22 40 22 86 0z m427 -605 c0 -231 -2 -265 -16 -270 -20 -8 -888 -8 -908 0 -14 5 -16 39 -16 270 l0 264 470 0 470 0 0 -264z" />
                <path d="M441 1222 c-15 -27 8 -47 33 -29 16 12 16 14 -3 31 -19 17 -20 17 -30 -2z" />
                <path d="M1006 1221 c-17 -19 -17 -20 2 -30 27 -15 47 8 29 33 -12 16 -14 16 -31 -3z" />
                <path d="M344 1219 c-3 -6 0 -17 7 -25 18 -17 44 -2 36 20 -7 18 -33 21 -43 5z" />
                <path d="M530 1210 c0 -14 7 -20 23 -20 30 0 40 10 26 27 -18 20 -49 16 -49 -7z" />
                <path d="M620 1210 c0 -16 7 -20 30 -20 32 0 42 23 14 34 -29 11 -44 6 -44 -14z" />
                <path d="M717 1224 c-17 -17 -5 -34 24 -34 24 0 30 4 27 18 -3 17 -38 29 -51 16z" />
                <path d="M813 1223 c-21 -8 -15 -30 9 -36 27 -8 38 -1 38 24 0 19 -19 24 -47 12z" />
                <path d="M900 1215 c-10 -12 -8 -16 11 -24 29 -11 39 -6 39 20 0 23 -32 26 -50 4z" />
                <path d="M1093 1214 c-8 -22 18 -37 36 -20 7 8 10 19 7 25 -10 16 -36 13 -43 -5z" />
                <path
                    d="M366 508 c-18 -86 -7 -120 38 -132 48 -12 35 -65 -21 -87 -27 -10 -34 -53 -16 -92 l14 -27 359 0 359 0 14 27 c18 39 11 82 -16 92 -56 22 -69 75 -21 87 45 12 56 46 38 132 l-4 22 -370 0 -370 0 -4 -22z m524 -61 l17 -21 16 25 c14 21 23 24 79 24 52 0 63 -3 66 -18 2 -11 -7 -23 -26 -34 -60 -35 -59 -119 3 -159 40 -26 30 -34 -46 -34 -62 0 -71 2 -76 20 -7 26 -30 26 -38 0 -6 -19 -15 -20 -241 -20 -140 0 -234 4 -234 9 0 6 13 18 30 27 58 35 59 123 0 157 -27 16 -38 36 -26 48 2 2 107 2 232 1 216 -4 228 -5 244 -25z" />
                <path d="M882 377 c-13 -15 -5 -54 12 -60 22 -9 38 9 34 39 -3 32 -28 43 -46 21z" />
            </g>
        </symbol>


        <symbol id="filter-bg" width="1440" height="1412" viewBox="0 0 1440 1412" fill="none"
            xmlns="http://www.w3.org/2000/svg">
            <g filter="url(#filter0_f_1_474)">
                <ellipse cx="132.235" cy="98.0869" rx="132.235" ry="98.0869"
                    transform="matrix(0.801472 -0.598032 0.590391 0.807118 992.997 612.155)" fill="#FFC700" />
            </g>
            <g filter="url(#filter1_f_1_474)">
                <ellipse cx="132.235" cy="98.0869" rx="132.235" ry="98.0869"
                    transform="matrix(0.801472 -0.598032 0.590391 0.807118 615.594 799.312)" fill="#FFC700" />
            </g>
            <g filter="url(#filter2_f_1_474)">
                <ellipse cx="132.235" cy="98.0869" rx="132.235" ry="98.0869"
                    transform="matrix(0.984436 0.175742 -0.185087 0.982722 282.065 616.066)" fill="#FFC700" />
            </g>
            <defs>
                <filter id="filter0_f_1_474" x="536.094" y="0.343994" width="1241.59" height="1223.8"
                    filterUnits="userSpaceOnUse" color-interpolation-filters="sRGB">
                    <feFlood flood-opacity="0" result="BackgroundImageFix" />
                    <feBlend mode="normal" in="SourceGraphic" in2="BackgroundImageFix" result="shape" />
                    <feGaussianBlur stdDeviation="250" result="effect1_foregroundBlur_1_474" />
                </filter>
                <filter id="filter1_f_1_474" x="158.692" y="187.501" width="1241.59" height="1223.8"
                    filterUnits="userSpaceOnUse" color-interpolation-filters="sRGB">
                    <feFlood flood-opacity="0" result="BackgroundImageFix" />
                    <feBlend mode="normal" in="SourceGraphic" in2="BackgroundImageFix" result="shape" />
                    <feGaussianBlur stdDeviation="250" result="effect1_foregroundBlur_1_474" />
                </filter>
                <filter id="filter2_f_1_474" x="-237.365" y="136.521" width="1262.91" height="1198.35"
                    filterUnits="userSpaceOnUse" color-interpolation-filters="sRGB">
                    <feFlood flood-opacity="0" result="BackgroundImageFix" />
                    <feBlend mode="normal" in="SourceGraphic" in2="BackgroundImageFix" result="shape" />
                    <feGaussianBlur stdDeviation="250" result="effect1_foregroundBlur_1_474" />
                </filter>
            </defs>
        </symbol>

        <symbol id="filter-bg" width="1440" height="1374" viewBox="0 0 1440 1374" fill="none"
            xmlns="http://www.w3.org/2000/svg">
            <g filter="url(#filter0_f_1_478)">
                <ellipse cx="132.235" cy="98.0869" rx="132.235" ry="98.0869"
                    transform="matrix(0.93202 -0.362408 0.353537 0.935421 934.812 646.639)" fill="#FFC700" />
            </g>
            <g filter="url(#filter1_f_1_478)">
                <ellipse cx="132.235" cy="98.0869" rx="132.235" ry="98.0869"
                    transform="matrix(0.93202 -0.362408 0.353537 0.935421 521.147 726.271)" fill="#FFC700" />
            </g>
            <g filter="url(#filter2_f_1_478)">
                <ellipse cx="132.235" cy="98.0869" rx="132.235" ry="98.0869"
                    transform="matrix(0.901811 0.43213 -0.440677 0.897666 248.63 460.648)" fill="#FFC700" />
            </g>
            <defs>
                <filter id="filter0_f_1_478" x="464.671" y="86.934" width="1256.13" height="1207.07"
                    filterUnits="userSpaceOnUse" color-interpolation-filters="sRGB">
                    <feFlood flood-opacity="0" result="BackgroundImageFix" />
                    <feBlend mode="normal" in="SourceGraphic" in2="BackgroundImageFix" result="shape" />
                    <feGaussianBlur stdDeviation="250" result="effect1_foregroundBlur_1_478" />
                </filter>
                <filter id="filter1_f_1_478" x="51.0059" y="166.565" width="1256.13" height="1207.07"
                    filterUnits="userSpaceOnUse" color-interpolation-filters="sRGB">
                    <feFlood flood-opacity="0" result="BackgroundImageFix" />
                    <feBlend mode="normal" in="SourceGraphic" in2="BackgroundImageFix" result="shape" />
                    <feGaussianBlur stdDeviation="250" result="effect1_foregroundBlur_1_478" />
                </filter>
                <filter id="filter2_f_1_478" x="-302.221" y="0.86145" width="1253.75" height="1209.96"
                    filterUnits="userSpaceOnUse" color-interpolation-filters="sRGB">
                    <feFlood flood-opacity="0" result="BackgroundImageFix" />
                    <feBlend mode="normal" in="SourceGraphic" in2="BackgroundImageFix" result="shape" />
                    <feGaussianBlur stdDeviation="250" result="effect1_foregroundBlur_1_478" />
                </filter>
            </defs>
        </symbol>



        <!-- home -->



        <!-- footer -->


        <symbol id="email" xmlns="http://www.w3.org/2000/svg" fill="none" viewBox="0 0 24 24" stroke-width="1.5"
            stroke="currentColor" class="size-6">
            <path stroke-linecap="round" stroke-linejoin="round"
                d="M21.75 6.75v10.5a2.25 2.25 0 0 1-2.25 2.25h-15a2.25 2.25 0 0 1-2.25-2.25V6.75m19.5 0A2.25 2.25 0 0 0 19.5 4.5h-15a2.25 2.25 0 0 0-2.25 2.25m19.5 0v.243a2.25 2.25 0 0 1-1.07 1.916l-7.5 4.615a2.25 2.25 0 0 1-2.36 0L3.32 8.91a2.25 2.25 0 0 1-1.07-1.916V6.75" />
        </symbol>

        <symbol id="download" xmlns="http://www.w3.org/2000/svg" fill="none" viewBox="0 0 24 24" stroke-width="1.5"
            stroke="currentColor" class="size-6">
            <path stroke-linecap="round" stroke-linejoin="round"
                d="M3 16.5v2.25A2.25 2.25 0 0 0 5.25 21h13.5A2.25 2.25 0 0 0 21 18.75V16.5M16.5 12 12 16.5m0 0L7.5 12m4.5 4.5V3" />
        </symbol>





        <symbol id="footer-serial" xmlns="http://www.w3.org/2000/svg" xmlns:xlink="http://www.w3.org/1999/xlink"
            viewBox="0 0 36 36" version="1.1" preserveAspectRatio="xMidYMid meet">
            <path
                d="M32.12,10H3.88A1.88,1.88,0,0,0,2,11.88V30.12A1.88,1.88,0,0,0,3.88,32H32.12A1.88,1.88,0,0,0,34,30.12V11.88A1.88,1.88,0,0,0,32.12,10ZM32,30H4V12H32Z"
                class="clr-i-outline clr-i-outline-path-1" />
            <path d="M30.14,3h0a1,1,0,0,0-1-1h-22a1,1,0,0,0-1,1h0V4h24Z" class="clr-i-outline clr-i-outline-path-2" />
            <path d="M32.12,7V7a1,1,0,0,0-1-1h-26a1,1,0,0,0-1,1h0V8h28Z" class="clr-i-outline clr-i-outline-path-3" />
            <path
                d="M12.82,26.79a1.74,1.74,0,0,0,.93.28,1.68,1.68,0,0,0,.69-.15l9.77-4.36a1.69,1.69,0,0,0,0-3.1L14.44,15.1a1.7,1.7,0,0,0-2.39,1.55v8.72A1.7,1.7,0,0,0,12.82,26.79Zm.63-10.14a.29.29,0,0,1,.14-.25.3.3,0,0,1,.16,0,.27.27,0,0,1,.12,0l9.77,4.35a.29.29,0,0,1,.18.28.28.28,0,0,1-.18.27l-9.77,4.36a.28.28,0,0,1-.28,0,.31.31,0,0,1-.14-.25Z"
                class="clr-i-outline clr-i-outline-path-4" />
            <rect x="0" y="0" width="36" height="36" fill-opacity="0" />
        </symbol>

        <symbol id="footer-home" xmlns="http://www.w3.org/2000/svg" version="1.0" viewBox="0 0 88.000000 89.000000"
            preserveAspectRatio="xMidYMid meet">
            <g transform="translate(0.000000,89.000000) scale(0.100000,-0.100000)" stroke="none">
                <path
                    d="M208 682 c-194 -193 -198 -198 -198 -239 0 -33 5 -46 26 -62 15 -12 35 -21 45 -21 18 0 19 -10 19 -149 0 -141 1 -151 23 -175 20 -24 29 -26 118 -27 53 -1 102 1 108 5 7 5 11 49 11 125 0 78 4 121 12 129 7 7 37 12 68 12 83 0 89 -9 92 -155 l3 -119 100 3 c91 2 102 5 125 27 24 24 25 30 28 172 l3 148 32 10 c38 11 61 52 52 93 -4 18 -71 92 -203 224 -180 179 -201 197 -232 197 -31 0 -52 -18 -232 -198z m436 -41 c205 -205 216 -223 138 -229 l-42 -3 0 -161 c0 -196 -1 -198 -97 -198 l-63 0 0 106 0 106 -34 34 c-32 32 -37 34 -106 34 -66 0 -74 -2 -101 -29 -29 -29 -29 -31 -29 -140 l0 -111 -69 0 c-45 0 -72 5 -80 13 -6 8 -12 77 -13 178 l-3 164 -35 3 c-36 4 -60 17 -60 34 0 15 374 387 390 388 8 0 100 -85 204 -189z" />
            </g>
        </symbol>

        <!-- footer -->




        <!-- login -->

        <symbol id="lock" xmlns="http://www.w3.org/2000/svg" version="1.0" viewBox="0 0 114.000000 164.000000"
            preserveAspectRatio="xMidYMid meet">

            <g transform="translate(0.000000,164.000000) scale(0.100000,-0.100000)" stroke="none">
                <path
                    d="M448 1621 c-31 -10 -72 -28 -91 -40 -54 -33 -126 -116 -155 -179 -24 -52 -27 -71 -30 -203 l-4 -147 -41 -5 c-50 -7 -87 -33 -109 -78 -16 -31 -18 -73 -18 -444 0 -452 0 -453 63 -499 28 -21 39 -21 502 -21 463 0 474 0 502 21 63 46 63 47 63 499 0 371 -2 413 -18 444 -22 45 -59 71 -109 78 l-41 5 -3 147 c-4 142 -5 149 -37 213 -42 85 -129 168 -209 198 -80 31 -191 36 -265 11z m198 -116 c61 -18 125 -71 162 -133 25 -44 27 -56 30 -184 l4 -138 -276 0 -276 0 0 118 c0 152 15 198 85 269 77 77 167 99 271 68z m359 -980 l0 -400 -440 0 -440 0 -3 390 c-1 214 0 396 3 403 3 10 97 12 442 10 l438 -3 0 -400z" />
                <path
                    d="M534 692 c-26 -17 -34 -56 -34 -170 0 -106 2 -122 21 -146 34 -44 90 -29 105 29 3 13 4 78 2 145 -3 107 -5 123 -22 136 -21 15 -54 18 -72 6z" />
            </g>
        </symbol>



        <symbol id="google" xmlns="http://www.w3.org/2000/svg" viewBox="0 0 24 24">
            <path
                d="M22.56 12.25c0-.78-.07-1.53-.2-2.25H12v4.26h5.92c-.26 1.37-1.04 2.53-2.21 3.31v2.77h3.57c2.08-1.92 3.28-4.74 3.28-8.09z"
                fill="#4285F4" />
            <path
                d="M12 23c2.97 0 5.46-.98 7.28-2.66l-3.57-2.77c-.98.66-2.23 1.06-3.71 1.06-2.86 0-5.29-1.93-6.16-4.53H2.18v2.84C3.99 20.53 7.7 23 12 23z"
                fill="#34A853" />
            <path
                d="M5.84 14.09c-.22-.66-.35-1.36-.35-2.09s.13-1.43.35-2.09V7.07H2.18C1.43 8.55 1 10.22 1 12s.43 3.45 1.18 4.93l2.85-2.22.81-.62z"
                fill="#FBBC05" />
            <path
                d="M12 5.38c1.62 0 3.06.56 4.21 1.64l3.15-3.15C17.45 2.09 14.97 1 12 1 7.7 1 3.99 3.47 2.18 7.07l3.66 2.84c.87-2.6 3.3-4.53 6.16-4.53z"
                fill="#EA4335" />
            <path d="M1 1h22v22H1z" fill="none" />
        </symbol>


            <symbol id="eye-slash" xmlns="http://www.w3.org/2000/svg" fill="none" viewBox="0 0 24 24" stroke-width="1.5"
      stroke="currentColor" class="size-6">
      <path stroke-linecap="round" stroke-linejoin="round"
        d="M3.98 8.223A10.477 10.477 0 0 0 1.934 12C3.226 16.338 7.244 19.5 12 19.5c.993 0 1.953-.138 2.863-.395M6.228 6.228A10.451 10.451 0 0 1 12 4.5c4.756 0 8.773 3.162 10.065 7.498a10.522 10.522 0 0 1-4.293 5.774M6.228 6.228 3 3m3.228 3.228 3.65 3.65m7.894 7.894L21 21m-3.228-3.228-3.65-3.65m0 0a3 3 0 1 0-4.243-4.243m4.242 4.242L9.88 9.88" />
    </symbol>

        <!-- login -->



            <!-- single movie -->

    <symbol id="star" xmlns="http://www.w3.org/2000/svg" fill="none" viewBox="0 0 24 24" stroke-width="1.5"
      stroke="currentColor" class="size-6">
      <path stroke-linecap="round" stroke-linejoin="round"
        d="M11.48 3.499a.562.562 0 0 1 1.04 0l2.125 5.111a.563.563 0 0 0 .475.345l5.518.442c.499.04.701.663.321.988l-4.204 3.602a.563.563 0 0 0-.182.557l1.285 5.385a.562.562 0 0 1-.84.61l-4.725-2.885a.562.562 0 0 0-.586 0L6.982 20.54a.562.562 0 0 1-.84-.61l1.285-5.386a.562.562 0 0 0-.182-.557l-4.204-3.602a.562.562 0 0 1 .321-.988l5.518-.442a.563.563 0 0 0 .475-.345L11.48 3.5Z" />
    </symbol>


    <symbol id="masks" xmlns="http://www.w3.org/2000/svg" version="1.0" viewBox="0 0 300.000000 263.000000"
      preserveAspectRatio="xMidYMid meet">

      <g transform="translate(0.000000,263.000000) scale(0.050000,-0.050000)" stroke-width="1">
        <path
          d="M400 5242 c-139 -43 -279 -164 -353 -302 -35 -66 -37 -134 -37 -1080 l0 -1010 64 -134 c193 -409 1156 -1016 1610 -1016 222 0 654 169 874 343 l52 41 10 -457 10 -457 74 -150 c202 -406 1168 -1020 1606 -1020 416 0 1419 618 1594 982 91 188 95 240 96 1209 0 1125 -11 1171 -304 1317 l-104 52 -1106 0 -1106 0 0 616 c0 769 -34 884 -307 1030 -86 46 -2535 79 -2673 36z m2500 -392 c90 -46 100 -121 100 -743 l0 -563 -90 -44 c-214 -103 -278 -246 -286 -641 l-7 -310 -164 -110 c-691 -462 -840 -459 -1589 41 -508 339 -483 267 -484 1391 0 951 -1 946 107 989 83 34 2347 24 2413 -10z m2589 -1678 c137 -58 133 -27 127 -1025 l-6 -897 -55 -93 c-117 -199 -785 -646 -1121 -749 -192 -59 -420 32 -938 377 -516 345 -486 258 -486 1388 0 1006 -6 964 138 1005 112 33 2262 27 2341 -6z" />
        <path
          d="M1019 4391 c-271 -138 -321 -210 -246 -355 66 -130 149 -126 446 24 252 126 281 154 281 270 0 199 -167 220 -481 61z" />
        <path
          d="M1932 4463 c-131 -146 -71 -255 226 -407 321 -164 460 -143 461 70 1 119 -26 147 -260 264 -243 122 -363 143 -427 73z" />
        <path
          d="M1495 3740 c-302 -77 -535 -360 -551 -674 -8 -133 -4 -147 43 -195 l51 -51 649 0 649 0 55 65 c102 121 27 439 -151 642 -152 173 -503 274 -745 213z m335 -398 c44 -20 102 -60 128 -89 l49 -53 -314 0 c-310 0 -313 0 -288 41 70 113 288 165 425 101z" />
        <path d="M3445 2784 c-157 -120 -92 -264 185 -408 341 -178 514 -145 491 94 -17 167 -547 414 -676 314z" />
        <path
          d="M4780 2710 c-240 -124 -280 -163 -280 -273 0 -207 157 -229 479 -67 236 118 261 144 261 270 0 207 -148 230 -460 70z" />
        <path
          d="M3616 1819 c-162 -162 28 -626 321 -786 479 -260 1076 39 1118 560 24 290 31 287 -756 287 l-622 0 -61 -61z m984 -349 c0 -49 -152 -135 -257 -145 -102 -10 -193 23 -278 101 -75 68 -56 74 245 74 243 0 290 -5 290 -30z" />
      </g>
    </symbol>

    <symbol id="calendar" xmlns="http://www.w3.org/2000/svg" version="1.0" 
      viewBox="0 0 900.000000 900.000000" preserveAspectRatio="xMidYMid meet">

      <g transform="translate(0.000000,900.000000) scale(0.100000,-0.100000)" >
        <path
          d="M2546 8975 c-6 -23 -11 -25 -70 -25 -49 0 -67 -4 -80 -19 -9 -10 -31 -22 -49 -25 -22 -4 -51 -27 -94 -74 l-63 -67 0 -876 0 -877 92 -91 c82 -81 96 -91 129 -91 21 0 47 -8 62 -20 21 -17 40 -20 120 -20 81 0 96 3 112 20 10 11 31 20 48 20 16 0 44 9 61 19 50 31 136 119 136 140 0 10 9 30 20 44 20 25 20 40 20 857 0 817 0 832 -20 857 -11 14 -20 33 -20 42 0 20 -86 111 -104 111 -7 0 -29 11 -49 25 -27 18 -52 25 -99 27 -54 3 -64 6 -73 26 -15 33 -70 31 -79 -3z" />
        <path
          d="M6348 8978 c-3 -21 -9 -23 -66 -26 -47 -2 -72 -9 -99 -27 -20 -14 -42 -25 -49 -25 -18 0 -104 -91 -104 -111 0 -9 -9 -28 -20 -42 -20 -25 -20 -40 -20 -879 l0 -853 90 -92 c86 -89 92 -93 134 -93 30 0 48 -6 61 -20 16 -17 31 -20 112 -20 80 0 99 3 120 20 15 12 41 20 62 20 33 0 47 10 129 91 l92 91 0 858 c0 827 -1 857 -19 874 -10 9 -22 31 -25 49 -8 38 -78 105 -118 114 -15 3 -35 14 -44 24 -13 15 -31 19 -80 19 -59 0 -64 2 -70 25 -5 21 -12 25 -44 25 -32 0 -39 -4 -42 -22z" />
        <path
          d="M473 8050 c-12 -14 -30 -20 -60 -20 -36 0 -48 -6 -76 -35 -18 -19 -48 -40 -66 -46 -41 -15 -121 -95 -121 -122 0 -11 -16 -34 -35 -52 -19 -18 -37 -46 -41 -61 -4 -16 -15 -40 -26 -53 -14 -18 -18 -41 -18 -101 0 -57 -4 -81 -15 -90 -13 -11 -15 -403 -15 -3420 0 -3017 2 -3409 15 -3420 11 -9 15 -33 15 -91 0 -67 4 -83 25 -115 14 -20 25 -42 25 -49 0 -7 7 -18 15 -25 8 -7 15 -22 15 -35 0 -29 176 -205 206 -205 12 0 27 -7 34 -15 7 -8 18 -15 25 -15 7 0 29 -11 49 -25 31 -21 48 -25 112 -25 57 0 76 -4 80 -15 5 -13 444 -15 3864 -15 3417 0 3859 2 3870 15 9 11 33 15 91 15 67 0 83 4 115 25 20 14 42 25 49 25 7 0 18 7 25 15 7 8 22 15 34 15 29 0 206 177 206 206 0 12 7 27 15 34 8 7 15 18 15 25 0 7 11 29 25 48 20 30 25 51 27 119 3 75 5 84 26 93 l22 10 0 3405 0 3405 -22 10 c-21 9 -24 19 -28 97 -3 59 -10 92 -21 105 -9 10 -19 31 -23 47 -4 15 -22 43 -41 61 -19 18 -35 41 -35 52 0 27 -80 107 -121 122 -18 6 -48 27 -66 46 -28 29 -40 35 -76 35 -30 0 -48 6 -60 20 -16 20 -29 20 -537 20 -493 0 -520 -1 -537 -19 -10 -10 -30 -21 -45 -25 -19 -4 -30 -16 -38 -40 -6 -19 -18 -40 -26 -46 -22 -19 -19 -116 6 -147 11 -14 20 -34 20 -43 0 -10 14 -32 32 -49 25 -25 40 -31 73 -31 29 0 47 -6 60 -20 18 -19 31 -20 459 -20 l441 0 48 -49 c26 -27 47 -59 47 -70 0 -12 9 -30 20 -41 20 -20 20 -33 20 -834 0 -448 -3 -821 -6 -830 -6 -15 -372 -16 -4054 -16 -3682 0 -4048 1 -4054 16 -3 9 -6 382 -6 830 0 801 0 814 20 834 11 11 20 29 20 41 0 11 21 43 48 70 l47 49 463 0 c450 0 463 1 479 20 13 14 30 20 60 20 39 0 48 5 93 53 l50 52 0 97 0 97 -50 51 -51 50 -560 0 c-547 0 -560 0 -576 -20z m8071 -2716 c3 -9 6 -1065 6 -2348 0 -2318 0 -2333 -20 -2359 -11 -14 -20 -33 -20 -43 0 -21 -96 -114 -117 -114 -8 0 -26 -9 -40 -20 -26 -20 -41 -20 -3863 -20 -3822 0 -3837 0 -3863 20 -14 11 -33 20 -42 20 -21 0 -115 94 -115 115 0 9 -9 28 -20 42 -20 26 -20 41 -20 2359 0 1283 3 2339 6 2348 6 15 372 16 4054 16 3682 0 4048 -1 4054 -16z" />
        <path
          d="M1162 4658 c-7 -7 -12 -37 -12 -67 0 -40 -6 -63 -20 -81 -18 -23 -20 -42 -20 -202 0 -165 1 -179 20 -198 15 -15 20 -33 20 -78 0 -32 5 -63 12 -70 17 -17 1119 -17 1136 0 7 7 12 39 12 72 0 43 6 71 20 94 18 28 20 50 20 175 0 126 -3 145 -20 167 -15 20 -20 41 -20 101 0 45 -5 80 -12 87 -17 17 -1119 17 -1136 0z" />
        <path
          d="M2997 4663 c-4 -3 -7 -33 -7 -65 0 -44 -5 -66 -21 -87 -19 -26 -20 -39 -17 -218 3 -162 6 -194 20 -210 10 -11 18 -39 20 -73 l3 -55 555 -3 c305 -1 565 0 578 3 20 5 22 11 22 73 0 50 5 75 20 97 18 27 20 47 20 175 0 129 -3 148 -20 170 -16 20 -20 41 -20 106 0 65 -3 83 -16 88 -21 8 -1129 8 -1137 -1z" />
        <path
          d="M4843 4663 c-9 -3 -13 -27 -13 -70 0 -50 -5 -71 -20 -90 -18 -23 -20 -41 -20 -193 0 -152 2 -170 20 -193 15 -19 20 -40 20 -91 0 -60 2 -66 23 -71 12 -3 272 -4 577 -3 l555 3 3 68 c2 51 8 73 22 87 18 18 20 35 20 200 0 167 -1 181 -20 200 -16 16 -20 33 -20 84 0 49 -4 65 -16 70 -19 7 -1113 7 -1131 -1z" />
        <path
          d="M6682 4658 c-7 -7 -12 -39 -12 -72 0 -45 -6 -68 -20 -86 -18 -22 -20 -42 -20 -191 0 -151 2 -169 20 -192 15 -19 20 -40 20 -84 0 -33 5 -64 12 -71 17 -17 1119 -17 1136 0 7 7 12 43 12 92 0 63 4 88 20 114 28 46 28 179 0 241 -16 33 -20 65 -20 140 0 62 -4 101 -12 109 -17 17 -1119 17 -1136 0z" />
        <path
          d="M1162 3298 c-7 -7 -12 -37 -12 -69 0 -41 -5 -63 -20 -82 -18 -23 -20 -40 -20 -186 0 -143 2 -164 20 -193 11 -19 20 -51 20 -74 0 -22 5 -45 12 -52 17 -17 1119 -17 1136 0 7 7 12 38 12 70 0 45 5 64 20 80 18 20 20 36 20 176 0 139 -2 156 -20 179 -15 19 -20 41 -20 82 0 32 -5 62 -12 69 -17 17 -1119 17 -1136 0z" />
        <path
          d="M3002 3298 c-7 -7 -12 -37 -12 -69 0 -42 -5 -63 -21 -83 -19 -24 -20 -37 -17 -200 2 -146 6 -177 20 -193 10 -10 18 -39 20 -68 l3 -50 555 -3 c305 -1 565 0 578 3 20 5 22 11 22 68 0 46 5 68 20 87 17 22 20 41 20 170 0 128 -2 148 -20 175 -14 22 -20 47 -20 91 0 33 -5 65 -12 72 -17 17 -1119 17 -1136 0z" />
        <path
          d="M4842 3298 c-7 -7 -12 -41 -12 -84 0 -56 -4 -77 -20 -97 -18 -22 -20 -40 -20 -160 0 -119 2 -137 20 -160 15 -19 20 -40 20 -91 0 -60 2 -66 23 -71 12 -3 272 -4 577 -3 l555 3 3 50 c2 33 10 56 23 68 17 16 19 33 19 196 0 163 -2 180 -20 204 -14 18 -20 40 -20 79 0 30 -5 59 -12 66 -17 17 -1119 17 -1136 0z" />
        <path
          d="M6682 3298 c-7 -7 -12 -42 -12 -89 0 -61 -4 -81 -20 -102 -17 -22 -20 -40 -20 -146 0 -103 3 -125 20 -153 14 -23 20 -51 20 -94 0 -33 5 -65 12 -72 17 -17 1119 -17 1136 0 7 7 12 43 12 93 0 69 3 85 20 100 18 16 20 31 20 121 0 86 -3 109 -20 136 -16 26 -20 51 -20 114 0 49 -5 85 -12 92 -17 17 -1119 17 -1136 0z" />
        <path
          d="M1162 1978 c-7 -7 -12 -42 -12 -89 0 -61 -4 -81 -20 -102 -18 -22 -20 -40 -20 -166 0 -123 3 -145 20 -173 14 -23 20 -51 20 -94 0 -33 5 -65 12 -72 17 -17 1119 -17 1136 0 7 7 12 38 12 71 0 44 5 65 20 84 18 23 20 41 20 175 0 135 -2 152 -20 175 -16 21 -20 41 -20 102 0 47 -5 82 -12 89 -17 17 -1119 17 -1136 0z" />
        <path
          d="M2996 1974 c-3 -9 -6 -39 -6 -68 0 -38 -6 -61 -20 -79 -18 -23 -20 -40 -20 -201 0 -164 1 -177 20 -193 16 -14 20 -30 20 -78 0 -34 5 -66 12 -73 9 -9 148 -12 564 -12 304 0 559 3 568 6 12 5 16 21 16 74 0 54 4 70 20 85 18 17 20 31 20 170 0 137 -2 155 -20 178 -16 20 -20 40 -20 104 0 48 -5 84 -12 91 -9 9 -150 12 -574 12 -503 0 -562 -2 -568 -16z" />
        <path
          d="M4842 1978 c-7 -7 -12 -39 -12 -73 0 -49 -4 -66 -20 -80 -19 -17 -20 -31 -20 -197 0 -165 2 -182 20 -205 15 -19 20 -41 20 -83 0 -44 4 -59 16 -64 9 -3 264 -6 568 -6 416 0 555 3 564 12 7 7 12 39 12 73 0 48 4 64 20 78 19 16 20 29 20 191 0 158 -2 176 -20 199 -15 18 -20 40 -20 80 0 96 60 87 -574 87 -424 0 -565 -3 -574 -12z" />
        <path
          d="M3542 8037 c-18 -18 -32 -40 -32 -49 0 -8 -9 -27 -20 -41 -16 -20 -20 -40 -20 -99 l0 -74 53 -52 c46 -45 58 -52 93 -52 28 0 47 -6 59 -20 18 -20 31 -20 795 -20 764 0 777 0 795 20 13 14 31 20 64 20 42 0 49 4 93 53 47 52 48 52 48 124 0 61 -4 78 -25 109 -14 20 -25 43 -25 51 0 8 -12 25 -26 38 l-27 25 -896 0 -897 0 -32 -33z" />
      </g>
    </symbol>


    <symbol id="globe" xmlns="http://www.w3.org/2000/svg" fill="none" viewBox="0 0 24 24" stroke-width="1"
      stroke="currentColor" class="size-6">
      <path stroke-linecap="round" stroke-linejoin="round"
        d="M12 21a9.004 9.004 0 0 0 8.716-6.747M12 21a9.004 9.004 0 0 1-8.716-6.747M12 21c2.485 0 4.5-4.03 4.5-9S14.485 3 12 3m0 18c-2.485 0-4.5-4.03-4.5-9S9.515 3 12 3m0 0a8.997 8.997 0 0 1 7.843 4.582M12 3a8.997 8.997 0 0 0-7.843 4.582m15.686 0A11.953 11.953 0 0 1 12 10.5c-2.998 0-5.74-1.1-7.843-2.918m15.686 0A8.959 8.959 0 0 1 21 12c0 .778-.099 1.533-.284 2.253m0 0A17.919 17.919 0 0 1 12 16.5c-3.162 0-6.133-.815-8.716-2.247m0 0A9.015 9.015 0 0 1 3 12c0-1.605.42-3.113 1.157-4.418" />
    </symbol>

    <symbol id="user-tie" xmlns="http://www.w3.org/2000/svg"
     version="1.0"
      viewBox="0 0 300.000000 328.000000" preserveAspectRatio="xMidYMid meet">

      <g transform="translate(0.000000,328.000000) scale(0.100000,-0.100000)" stroke-width="1">
        <path
          d="M1450 3270 c0 -6 -30 -10 -69 -10 -39 0 -72 -4 -75 -9 -3 -4 -31 -11 -63 -14 -58 -6 -113 -25 -113 -39 0 -5 -9 -8 -19 -8 -26 0 -97 -37 -148 -77 -23 -18 -45 -33 -50 -33 -5 0 -20 -11 -33 -25 -13 -14 -28 -25 -34 -25 -14 0 -96 -81 -96 -95 0 -6 -16 -26 -35 -45 -19 -19 -35 -38 -35 -43 0 -5 -15 -28 -32 -50 -37 -47 -58 -83 -58 -102 0 -7 -7 -26 -15 -41 -8 -16 -15 -37 -15 -46 0 -9 -4 -20 -10 -23 -6 -3 -10 -17 -10 -30 0 -13 -4 -27 -10 -30 -5 -3 -10 -24 -10 -45 0 -21 -5 -42 -10 -45 -13 -8 -13 -332 0 -340 6 -3 10 -22 10 -41 0 -19 4 -42 9 -52 23 -45 32 -69 30 -78 -3 -11 31 -82 66 -139 14 -22 29 -49 34 -60 5 -12 16 -27 25 -34 9 -7 16 -19 16 -25 0 -14 162 -176 176 -176 6 0 23 -13 39 -30 16 -16 35 -30 42 -30 7 0 13 -7 13 -15 0 -8 -9 -15 -19 -15 -20 0 -104 -40 -109 -52 -2 -5 -8 -8 -14 -8 -18 0 -135 -59 -148 -75 -7 -8 -18 -15 -24 -15 -6 0 -20 -11 -30 -25 -10 -14 -24 -25 -30 -25 -7 0 -27 -16 -46 -35 -19 -19 -39 -35 -45 -35 -13 0 -145 -132 -145 -146 0 -5 -16 -25 -35 -44 -19 -19 -35 -38 -35 -43 0 -5 -8 -17 -17 -26 -20 -18 -39 -46 -52 -78 -6 -11 -14 -24 -20 -27 -11 -7 -91 -167 -91 -182 0 -16 -24 -64 -32 -64 -5 0 -8 -11 -8 -24 0 -14 -4 -27 -9 -30 -5 -3 -12 -35 -16 -71 -3 -36 -11 -67 -16 -70 -5 -4 -9 -24 -9 -45 0 -21 -5 -42 -10 -45 -6 -3 -10 -52 -10 -111 l0 -104 103 0 c67 0 107 -4 115 -12 9 -9 12 7 12 74 0 48 4 90 10 93 5 3 10 28 10 55 0 27 4 52 10 55 6 3 10 19 10 35 0 16 5 32 10 35 6 3 10 17 10 30 0 13 5 27 11 30 6 4 8 13 5 21 -5 13 9 50 24 64 3 3 18 32 34 65 15 33 33 71 39 85 7 14 20 32 29 41 10 9 18 21 18 26 0 5 11 20 25 33 14 13 25 28 25 34 0 14 192 206 206 206 6 0 21 11 34 25 13 14 29 25 36 25 7 0 17 6 21 13 17 26 170 110 224 122 16 4 31 11 34 16 4 5 15 9 26 9 10 0 27 4 37 9 52 27 72 32 103 29 l34 -3 1 -113 1 -114 119 -119 119 -119 122 122 122 122 3 111 3 110 34 3 c18 2 38 -1 44 -7 6 -6 19 -11 29 -11 10 0 26 -4 36 -9 78 -39 105 -50 112 -46 5 3 26 -4 47 -16 21 -12 50 -28 64 -36 15 -7 32 -20 39 -28 7 -8 16 -13 20 -10 4 2 15 -4 25 -15 10 -11 22 -20 28 -20 15 0 73 -49 170 -146 115 -114 146 -152 200 -254 13 -25 33 -62 45 -83 12 -20 19 -37 15 -37 -4 0 -2 -5 5 -12 7 -7 12 -22 12 -35 0 -13 3 -23 8 -23 11 0 32 -51 32 -77 0 -13 4 -31 9 -41 19 -36 24 -58 22 -98 -1 -23 2 -45 8 -49 7 -3 11 -42 11 -96 0 -53 4 -89 10 -89 6 0 10 5 10 10 0 6 42 10 107 10 l106 0 -6 147 c-4 90 -10 149 -16 151 -6 2 -11 19 -11 37 0 19 -4 37 -10 40 -5 3 -10 19 -10 35 0 16 -4 32 -10 35 -5 3 -10 15 -10 27 0 11 -7 36 -16 56 -50 113 -95 201 -109 212 -8 7 -15 18 -15 25 0 7 -7 19 -16 26 -9 7 -20 22 -25 34 -21 44 -39 69 -78 109 -23 23 -41 46 -41 52 0 13 -113 124 -126 124 -5 0 -25 16 -44 35 -19 19 -39 35 -45 35 -6 0 -22 11 -35 25 -13 14 -29 25 -36 25 -6 0 -17 7 -24 15 -7 8 -24 21 -39 28 -14 7 -35 18 -46 24 -29 17 -166 80 -190 88 -19 6 -18 8 10 28 16 12 36 30 44 39 9 10 20 18 26 18 12 0 156 148 187 191 9 13 28 38 41 54 20 26 37 55 42 75 1 8 35 81 56 123 10 22 19 49 19 62 0 13 5 27 11 30 6 4 7 19 4 35 -3 16 -2 31 4 35 14 8 15 341 1 350 -6 3 -7 18 -4 31 6 23 1 42 -27 96 -5 10 -9 24 -9 33 0 8 -8 29 -19 48 -10 18 -22 47 -25 64 -4 17 -16 39 -27 49 -10 9 -19 22 -19 29 0 7 -9 20 -20 30 -11 10 -20 23 -20 30 0 6 -16 26 -35 45 -19 19 -35 38 -35 42 0 12 -55 68 -67 68 -5 0 -24 16 -43 35 -19 19 -38 35 -44 35 -5 0 -18 7 -28 17 -21 19 -47 35 -100 60 -21 10 -38 21 -38 25 0 5 -9 8 -20 8 -11 0 -36 9 -55 20 -20 11 -63 23 -96 27 -33 3 -62 10 -65 14 -3 5 -39 9 -80 9 -43 0 -74 4 -74 10 0 6 -18 10 -40 10 -22 0 -40 -4 -40 -10z m185 -250 c3 -5 24 -10 45 -10 21 0 42 -4 45 -10 3 -5 13 -10 22 -10 23 0 119 -48 175 -87 26 -18 50 -33 53 -33 7 0 121 -116 129 -132 14 -28 32 -57 45 -72 23 -27 61 -108 56 -117 -3 -4 -1 -10 5 -14 5 -3 10 -17 10 -30 0 -13 5 -27 10 -30 6 -3 10 -19 10 -35 0 -16 5 -32 10 -35 6 -4 10 -60 10 -135 0 -75 -4 -131 -10 -135 -5 -3 -10 -21 -10 -40 0 -19 -5 -37 -11 -40 -5 -4 -8 -12 -6 -18 2 -7 -5 -27 -15 -45 -10 -18 -18 -38 -18 -44 0 -16 -50 -95 -90 -142 -20 -22 -44 -54 -54 -69 -9 -15 -27 -32 -39 -36 -12 -5 -33 -21 -46 -35 -27 -28 -215 -126 -243 -126 -9 0 -19 -4 -22 -9 -17 -27 -365 -27 -382 0 -3 5 -18 9 -34 9 -25 0 -64 17 -115 48 -5 4 -12 7 -15 7 -23 3 -101 49 -124 74 -17 17 -35 31 -42 31 -6 0 -23 17 -38 39 -15 21 -38 49 -52 62 -14 13 -34 42 -45 64 -11 22 -23 47 -28 55 -26 46 -51 104 -51 120 0 11 -4 21 -9 24 -21 14 -41 310 -22 329 6 6 11 26 11 43 0 18 5 36 10 39 6 3 10 16 10 29 0 31 74 177 105 206 14 13 25 28 25 35 0 14 112 125 126 125 6 0 21 11 34 25 13 14 29 25 36 25 7 0 14 4 16 8 5 13 113 62 136 62 11 0 24 5 27 10 3 6 24 10 45 10 21 0 42 5 45 10 4 6 60 10 135 10 75 0 131 -4 135 -10z" />
        <path
          d="M1377 632 l-118 -119 0 -244 0 -244 241 -3 240 -2 0 247 0 248 -120 118 c-66 64 -121 117 -123 117 -1 0 -55 -53 -120 -118z" />
      </g>
    </symbol>

    <symbol id="users" xmlns="http://www.w3.org/2000/svg" version="1.0" viewBox="0 0 300.000000 301.000000"
      preserveAspectRatio="xMidYMid meet">

      <g transform="translate(0.000000,301.000000) scale(0.100000,-0.100000)" s>
        <path
          d="M1370 2444 c-153 -40 -277 -141 -347 -281 l-40 -80 -39 30 c-271 206 -669 47 -725 -290 -15 -90 0 -184 42 -270 32 -67 101 -150 143 -172 14 -8 26 -17 26 -20 0 -3 -35 -24 -78 -46 -115 -58 -215 -162 -276 -285 -58 -118 -76 -209 -76 -380 0 -104 3 -132 16 -144 13 -14 59 -16 349 -16 l333 0 6 -25 c4 -15 18 -30 32 -35 15 -6 315 -10 767 -10 656 0 745 2 765 16 12 8 22 24 22 35 0 18 10 19 333 19 285 0 336 2 355 16 21 14 22 22 22 152 0 165 -16 249 -68 357 -66 138 -187 259 -315 315 l-46 21 69 68 c81 79 125 163 139 263 28 203 -69 383 -257 475 -75 37 -78 38 -191 38 -129 0 -174 -14 -268 -81 l-47 -34 -19 47 c-78 200 -283 335 -505 332 -37 0 -92 -7 -122 -15z m212 -95 c194 -41 333 -201 346 -397 16 -259 -173 -462 -430 -462 -177 0 -319 89 -396 249 -154 320 131 683 480 610z m-754 -289 c35 -18 79 -52 98 -74 30 -35 34 -46 34 -98 0 -36 10 -89 26 -136 l25 -78 -21 -56 c-41 -110 -143 -194 -268 -219 -148 -31 -308 54 -380 201 -23 47 -27 67 -27 145 0 76 4 99 26 145 66 141 183 213 339 207 74 -3 93 -7 148 -37z m1647 6 c76 -35 147 -108 176 -184 34 -87 32 -198 -5 -279 -67 -146 -225 -230 -380 -202 -81 14 -143 48 -195 104 -50 55 -96 147 -87 178 3 12 14 54 25 92 11 39 20 93 20 120 1 41 7 57 32 88 34 41 98 82 162 103 67 22 181 13 252 -20z m-1263 -596 c4 0 8 -4 8 -10 0 -5 -6 -10 -12 -10 -22 0 -140 -59 -190 -95 -48 -35 -48 -35 -83 -18 l-34 16 62 57 c34 32 75 80 92 107 l29 50 60 -49 c33 -26 64 -48 68 -48z m717 54 c14 -25 56 -74 93 -109 l69 -64 -35 -15 c-35 -15 -36 -14 -100 28 -35 24 -91 54 -125 67 -34 13 -61 26 -61 29 0 3 12 13 28 22 15 9 43 33 61 52 19 20 37 36 40 36 4 0 17 -21 30 -46z m-309 -145 c262 -33 475 -220 540 -475 13 -51 23 -130 27 -226 l6 -148 -698 0 -697 0 4 168 c4 149 7 175 32 247 112 325 398 483 786 434z m-777 -114 c47 -17 47 -18 32 -39 -129 -175 -175 -313 -175 -526 l0 -110 -300 0 -300 0 0 113 c0 66 6 134 15 167 52 195 215 357 408 406 71 18 257 12 320 -11z m1672 -5 c81 -31 186 -101 235 -158 51 -60 105 -163 125 -238 9 -35 15 -102 15 -166 l0 -108 -299 0 -298 0 -6 143 c-3 82 -13 167 -22 202 -22 81 -76 191 -125 256 -31 42 -37 55 -26 61 78 44 295 48 401 8z" />
      </g>
    </symbol>

    <symbol id="comment" xmlns="http://www.w3.org/2000/svg" fill="none" viewBox="0 0 24 24" stroke-width="1"
      stroke="currentColor" class="size-6">
      <path stroke-linecap="round" stroke-linejoin="round"
        d="M12 20.25c4.97 0 9-3.694 9-8.25s-4.03-8.25-9-8.25S3 7.444 3 12c0 2.104.859 4.023 2.273 5.48.432.447.74 1.04.586 1.641a4.483 4.483 0 0 1-.923 1.785A5.969 5.969 0 0 0 6 21c1.282 0 2.47-.402 3.445-1.087.81.22 1.668.337 2.555.337Z" />
    </symbol>

    <symbol id="like" xmlns="http://www.w3.org/2000/svg" version="1.0" viewBox="0 0 504.000000 447.000000"
      preserveAspectRatio="xMidYMid meet">
      <g transform="translate(0.000000,447.000000) scale(0.100000,-0.100000)" stroke="none">
        <path
          d="M2922 4415 c-39 -8 -81 -16 -91 -20 -31 -10 -97 -67 -134 -115 -50 -66 -68 -135 -78 -300 -5 -80 -11 -152 -14 -160 -2 -8 -7 -44 -10 -79 -3 -35 -15 -89 -26 -120 -11 -31 -24 -69 -28 -86 -11 -38 -76 -163 -123 -237 -41 -63 -67 -95 -118 -147 -19 -20 -44 -47 -55 -62 -39 -49 -205 -169 -304 -218 -68 -35 -139 -60 -226 -82 -70 -18 -133 -38 -141 -46 -12 -12 -14 -172 -12 -1131 l3 -1117 30 -15 c24 -11 76 -14 250 -15 l220 0 41 -27 c22 -14 72 -53 111 -86 38 -34 91 -72 118 -86 26 -14 54 -31 61 -36 15 -13 1850 -14 1905 -1 91 21 192 91 243 168 37 56 50 110 48 202 -3 104 -15 140 -72 211 -28 34 -50 71 -50 81 0 10 23 36 53 58 57 44 102 96 117 136 5 14 19 45 30 69 27 61 26 131 -6 224 -18 54 -36 87 -60 109 -46 43 -46 84 -2 121 64 53 108 107 139 171 31 63 32 66 26 164 -6 87 -10 106 -38 156 -17 31 -42 69 -55 84 -32 38 -30 61 6 89 69 52 117 107 148 168 28 56 32 75 32 140 0 89 -6 118 -42 185 -39 76 -110 136 -198 170 l-75 29 -631 -3 c-718 -3 -672 -9 -660 78 6 42 13 70 56 221 11 36 32 128 47 205 25 127 28 160 28 351 0 150 -4 215 -12 226 -7 8 -19 41 -28 73 -33 130 -136 253 -246 295 -61 23 -75 23 -177 5z m158 -79 c19 -13 44 -26 55 -30 11 -3 31 -23 45 -43 14 -21 33 -45 43 -55 9 -10 17 -24 17 -32 0 -7 11 -34 25 -60 18 -34 29 -80 41 -174 15 -119 15 -138 -1 -297 -9 -93 -25 -197 -36 -231 -10 -33 -19 -69 -19 -79 0 -21 -13 -66 -41 -139 -11 -27 -19 -58 -19 -70 0 -12 -10 -46 -21 -76 -28 -70 -36 -148 -17 -155 7 -3 328 -6 713 -8 l700 -2 45 -25 c95 -52 135 -99 164 -193 26 -84 16 -150 -36 -228 -61 -90 -143 -137 -255 -144 -42 -2 -72 -10 -84 -21 -28 -25 -9 -50 45 -57 62 -9 124 -43 174 -96 58 -61 73 -94 79 -176 5 -62 2 -78 -20 -125 -33 -72 -91 -131 -168 -169 -54 -27 -73 -31 -130 -30 -74 2 -89 -3 -89 -31 0 -24 6 -27 88 -49 79 -21 155 -74 196 -138 22 -33 28 -58 33 -126 6 -83 5 -87 -26 -136 -17 -28 -31 -55 -31 -60 0 -12 -68 -71 -81 -71 -6 0 -25 -11 -43 -25 -28 -22 -43 -25 -109 -25 -88 0 -107 -5 -107 -31 0 -25 33 -44 102 -58 47 -10 65 -21 108 -62 68 -68 77 -83 94 -163 13 -64 13 -73 -6 -137 -31 -101 -110 -174 -221 -203 -70 -18 -1703 -23 -1813 -6 -75 12 -138 47 -229 127 -123 109 -105 103 -318 103 -206 0 -236 4 -266 32 -21 19 -21 20 -21 1057 0 1028 0 1039 20 1064 15 19 34 28 68 32 53 7 132 31 171 51 14 8 33 14 41 14 8 0 33 14 54 30 22 17 44 30 49 30 9 0 111 67 145 95 114 96 201 191 284 312 60 86 140 247 159 316 6 22 14 47 19 56 21 40 33 130 40 301 6 157 10 193 29 239 51 125 153 192 301 200 14 0 41 -10 60 -23z" />
        <path
          d="M265 2824 c-53 -16 -100 -56 -131 -114 -18 -34 -19 -76 -19 -1105 0 -1051 0 -1071 20 -1107 28 -51 87 -95 146 -107 61 -13 806 -15 861 -2 43 10 89 47 136 107 l32 41 0 1075 0 1075 -40 55 c-38 53 -49 60 -131 87 -58 18 -810 14 -874 -5z m865 -71 c56 -20 68 -29 86 -65 12 -24 14 -180 14 -1080 0 -1010 -1 -1054 -19 -1078 -10 -14 -33 -34 -52 -45 -32 -19 -53 -20 -454 -20 -470 0 -446 -4 -498 72 l-27 40 2 1039 c2 835 6 1044 16 1064 7 14 37 40 65 58 l52 32 385 0 c334 0 390 -2 430 -17z" />
      </g>
    </symbol>

    <symbol id="disslike" xmlns="http://www.w3.org/2000/svg" version="1.0" viewBox="0 0 525.000000 480.000000"
      preserveAspectRatio="xMidYMid meet">
      <g transform="translate(0.000000,480.000000) scale(0.100000,-0.100000)" stroke="none">
        <path
          d="M918 4229 c-137 -8 -179 -24 -264 -102 -121 -111 -157 -261 -95 -399 16 -34 43 -80 60 -102 39 -49 40 -80 1 -114 -86 -76 -116 -112 -144 -172 -27 -57 -30 -76 -30 -150 0 -76 3 -93 34 -157 19 -40 42 -75 51 -78 9 -3 22 -19 29 -35 10 -25 10 -34 -4 -55 -9 -14 -21 -25 -27 -25 -31 0 -129 -122 -153 -190 -19 -54 -21 -177 -4 -234 13 -44 62 -130 90 -158 27 -27 22 -53 -19 -87 -114 -94 -155 -153 -173 -245 -16 -84 -6 -152 32 -224 44 -82 83 -126 138 -156 110 -60 79 -58 760 -57 491 1 630 -1 650 -12 30 -15 38 -62 17 -104 -8 -15 -18 -50 -22 -78 -3 -27 -17 -84 -31 -125 -13 -41 -24 -86 -24 -101 0 -15 -9 -57 -21 -94 -11 -37 -20 -81 -20 -98 0 -18 -4 -75 -9 -127 -14 -143 2 -296 41 -410 17 -52 39 -106 49 -120 9 -14 25 -37 34 -52 25 -42 121 -109 179 -126 29 -9 72 -15 97 -15 46 1 158 24 182 39 75 45 146 136 167 214 7 25 16 115 21 200 9 169 32 310 60 380 42 106 85 197 107 230 12 19 23 38 23 43 0 7 22 39 70 101 43 54 223 226 275 262 92 62 235 135 285 144 46 9 104 23 173 43 72 20 67 -66 67 1150 l0 1098 -23 23 c-19 19 -37 24 -117 29 -52 3 -147 4 -212 1 -148 -5 -172 4 -283 99 -93 80 -190 134 -258 143 -59 8 -1616 10 -1759 3z m1763 -84 c64 -16 123 -47 160 -84 14 -14 40 -37 59 -51 18 -14 40 -33 49 -43 41 -47 65 -51 272 -49 204 3 240 -3 259 -38 8 -14 11 -319 11 -1058 l0 -1037 -31 -27 c-23 -21 -41 -28 -73 -28 -24 0 -72 -13 -112 -30 -38 -17 -76 -30 -83 -30 -8 0 -34 -13 -59 -30 -24 -16 -46 -30 -48 -30 -14 0 -119 -71 -131 -89 -8 -12 -21 -21 -27 -21 -32 -1 -307 -322 -307 -359 0 -5 -11 -22 -24 -38 -13 -15 -27 -39 -31 -53 -4 -14 -18 -47 -30 -75 -72 -159 -87 -229 -94 -445 -6 -156 -11 -193 -29 -237 -39 -96 -101 -154 -194 -184 -59 -19 -74 -20 -115 -10 -93 24 -187 104 -218 185 -6 17 -23 54 -36 81 -23 49 -24 55 -23 300 1 227 3 257 24 330 12 44 26 105 31 135 11 63 50 197 85 288 29 76 31 118 5 131 -10 6 -47 10 -82 10 -35 0 -345 2 -689 3 l-625 3 -48 24 c-63 30 -100 63 -138 118 -71 102 -52 280 37 353 88 72 111 82 197 89 62 5 91 11 106 25 29 27 12 56 -33 56 -54 0 -148 53 -195 109 -41 49 -81 143 -80 191 0 43 55 153 100 199 63 64 147 101 232 101 53 0 69 3 74 16 11 30 -12 48 -88 66 -61 15 -81 26 -117 61 -66 65 -92 119 -98 207 -6 73 -1 98 28 145 40 63 75 97 134 129 56 31 73 36 134 36 81 0 100 6 100 31 0 23 -33 45 -84 54 -63 11 -119 44 -156 93 -49 64 -49 65 -66 130 -13 47 -13 67 -4 112 15 70 23 83 78 142 65 70 102 89 185 98 40 4 450 8 912 9 706 1 850 -1 896 -14z" />
        <path
          d="M3973 4059 c-35 -10 -130 -101 -144 -137 -12 -32 -12 -2143 0 -2173 19 -46 86 -106 138 -123 45 -15 99 -17 470 -14 414 3 418 3 465 26 69 35 101 87 110 181 12 140 9 2049 -4 2093 -6 22 -30 57 -52 79 -77 77 -51 74 -526 76 -245 1 -439 -2 -457 -8z m929 -127 l49 -51 -3 -1054 c-3 -903 -5 -1056 -18 -1071 -7 -10 -37 -31 -65 -47 l-50 -29 -393 0 c-437 0 -430 -1 -497 70 l-30 31 0 1052 c0 1026 0 1053 19 1078 41 53 66 64 161 70 50 3 245 5 434 4 l344 -1 49 -52z" />
      </g>
    </symbol>


    <!-- single movie -->



<symbol id="subscription" version="1.0" xmlns="http://www.w3.org/2000/svg" viewBox="0 0 900.000000 861.000000" preserveAspectRatio="xMidYMid meet">
      <g transform="translate(0.000000,861.000000) scale(0.100000,-0.100000)" stroke="none">
        <path d="M8030 8562 c0 -41 -5 -53 -30 -77 -27 -26 -30 -35 -30 -92 0 -58 -2 -64 -30 -85 -22 -16 -30 -30 -30 -52 0 -19 -10 -40 -27 -58 -18 -19 -28 -40 -29 -64 0 -20 -7 -40 -15 -45 -8 -5 -117 -9 -242 -8 -163 0 -232 -3 -243 -12 -10 -8 -14 -34 -14 -92 l0 -81 175 -176 c195 -196 201 -207 144 -260 -31 -28 -31 -29 -30 -117 2 -88 1 -89 -29 -111 -27 -21 -30 -28 -30 -79 0 -54 3 -60 42 -100 40 -40 45 -43 98 -43 49 0 59 3 82 30 18 21 35 30 57 30 23 0 42 12 84 55 40 41 61 55 82 55 18 0 41 13 66 35 22 19 46 35 54 35 8 0 32 -16 54 -35 26 -23 48 -35 68 -35 23 0 42 -13 82 -55 41 -43 59 -55 83 -55 21 0 38 -9 56 -30 23 -27 33 -30 82 -30 53 0 58 3 98 43 39 40 42 47 42 98 0 49 -4 59 -31 85 -30 29 -31 30 -27 108 5 79 5 80 -29 115 -56 60 -53 64 150 269 122 123 191 185 210 189 20 4 27 11 27 29 0 19 -5 24 -24 24 -28 0 -56 33 -49 58 2 9 -2 25 -10 36 -12 17 -30 18 -244 17 -252 -2 -257 -1 -255 58 0 19 -9 38 -29 57 -20 19 -29 37 -29 59 0 23 -9 39 -30 58 -27 24 -30 33 -30 85 0 52 -3 62 -30 87 -25 24 -30 36 -30 77 l0 48 -105 0 -105 0 0 -48z"></path>
        <path d="M2726 8508 c-18 -18 -40 -28 -58 -28 -20 0 -39 -10 -58 -30 -19 -20 -38 -30 -57 -30 -23 0 -51 -23 -155 -127 -105 -106 -126 -133 -126 -157 0 -20 -8 -35 -26 -49 -19 -14 -26 -27 -26 -54 0 -26 -7 -41 -30 -61 l-30 -26 0 -3672 0 -3672 30 -30 c20 -20 30 -41 30 -59 0 -19 9 -38 25 -53 16 -15 25 -34 25 -53 0 -25 21 -52 127 -159 109 -110 131 -128 158 -128 21 0 40 -9 55 -25 16 -17 34 -25 57 -25 23 0 40 -8 55 -25 l22 -25 2799 0 2800 0 23 25 c15 16 34 25 53 25 18 0 41 10 57 25 15 14 39 25 54 25 22 0 54 26 154 124 104 102 126 129 126 153 0 19 10 39 30 58 21 20 30 38 30 60 0 22 9 40 30 60 l30 29 0 2927 c0 2640 -2 2929 -16 2943 -8 9 -28 16 -43 16 -17 0 -38 11 -56 30 -16 17 -39 30 -53 30 -14 0 -35 -12 -50 -30 -18 -21 -36 -30 -56 -30 -22 0 -42 -12 -73 -42 l-43 -42 0 -2846 0 -2846 -55 -54 c-41 -41 -55 -62 -55 -83 0 -48 -16 -67 -57 -67 -32 0 -45 -8 -92 -57 l-56 -58 -2649 -1 -2650 0 -32 28 c-17 15 -43 28 -57 28 -38 0 -237 199 -237 237 0 15 -11 38 -25 53 l-25 26 0 3510 0 3509 25 18 c17 13 25 28 25 49 0 26 17 49 102 134 81 83 107 104 130 104 18 0 40 11 60 30 l31 30 1905 0 1904 0 35 30 c20 18 45 30 61 30 36 0 52 17 52 55 0 21 9 38 30 57 39 34 39 67 0 101 -20 18 -30 37 -30 56 0 16 -7 34 -15 41 -12 10 -430 13 -2063 14 l-2047 1 -29 -27z"></path>
        <path d="M5422 6988 l-72 -71 0 -314 0 -314 -47 -45 -46 -45 -84 2 c-83 3 -84 3 -113 -29 -22 -24 -37 -32 -63 -32 -26 0 -39 -6 -51 -25 -12 -18 -25 -25 -49 -25 -26 0 -43 -11 -87 -55 -41 -41 -61 -55 -83 -55 -23 0 -46 -16 -103 -72 -62 -60 -74 -77 -74 -104 0 -23 -7 -38 -26 -53 -18 -14 -26 -31 -29 -58 -2 -26 -10 -43 -29 -58 -18 -14 -26 -30 -26 -51 0 -21 -10 -39 -30 -59 l-30 -29 0 -286 0 -286 30 -22 c22 -17 30 -31 30 -53 0 -21 11 -43 30 -66 22 -24 29 -41 24 -55 -9 -31 190 -228 231 -228 22 0 43 -13 82 -52 39 -39 62 -53 84 -54 20 -1 41 -12 56 -28 15 -17 34 -26 54 -26 22 0 39 -9 57 -30 19 -21 36 -30 57 -30 22 0 40 -9 60 -30 26 -27 35 -30 85 -29 50 1 59 -2 87 -30 21 -21 41 -31 61 -31 20 0 40 -10 59 -29 26 -26 34 -28 79 -24 47 5 54 3 83 -26 20 -20 42 -31 59 -31 18 0 39 -11 57 -30 26 -27 34 -30 86 -27 51 2 61 -1 86 -25 16 -16 40 -28 54 -28 18 0 65 -41 187 -162 l162 -161 0 -229 0 -228 -30 -27 c-21 -18 -30 -35 -30 -57 0 -26 -16 -48 -103 -134 -84 -84 -108 -102 -132 -102 -21 0 -39 -9 -57 -30 -19 -22 -35 -30 -58 -30 -22 0 -38 -8 -52 -25 -17 -22 -27 -25 -81 -25 -57 0 -65 -3 -89 -30 l-26 -30 -259 0 -259 0 -29 30 c-25 27 -35 30 -87 30 -50 0 -61 4 -88 30 -28 28 -35 30 -83 24 l-52 -6 -60 61 c-48 50 -65 61 -92 61 -24 0 -37 7 -53 30 -15 22 -30 30 -51 30 -19 0 -37 -10 -56 -30 -18 -21 -36 -30 -57 -30 -22 0 -42 -11 -73 -42 l-43 -42 0 -81 0 -81 73 -72 c56 -55 79 -72 101 -72 17 0 42 -12 63 -30 24 -21 41 -29 54 -25 14 5 28 -2 48 -24 20 -21 39 -31 58 -31 19 0 39 -10 58 -30 28 -29 32 -30 120 -30 91 0 91 0 115 -31 l23 -32 142 6 c128 5 145 4 159 -12 14 -15 16 -58 16 -332 l0 -315 68 -67 68 -67 85 0 85 0 42 43 43 44 -2 338 -1 338 45 45 45 45 84 -2 c81 -2 84 -1 113 29 20 21 38 30 60 30 22 0 38 9 58 31 22 25 32 30 53 25 22 -6 33 2 81 54 45 49 62 60 87 60 44 0 166 121 166 164 0 22 14 43 60 88 59 59 60 60 60 117 0 51 3 60 31 87 29 27 30 32 24 78 -6 45 -4 51 25 82 l32 32 0 172 0 172 -31 29 -31 28 6 84 7 84 -32 24 c-24 17 -31 30 -31 55 0 29 -19 51 -156 188 -128 129 -160 156 -184 156 -21 0 -41 13 -81 55 -40 42 -59 55 -82 55 -20 0 -42 11 -67 34 -34 31 -41 33 -87 29 -46 -5 -53 -2 -82 26 -19 18 -42 31 -58 31 -14 0 -40 13 -59 30 -31 26 -38 29 -84 23 -46 -5 -51 -4 -79 26 -26 28 -35 31 -88 31 -53 0 -62 3 -88 30 -20 21 -38 30 -61 30 -23 0 -38 8 -53 26 -13 16 -33 27 -57 30 -23 3 -44 13 -56 29 -14 17 -29 25 -52 25 -23 0 -41 9 -61 30 -20 21 -38 30 -60 30 -26 0 -47 16 -133 104 -83 84 -102 109 -102 133 0 19 -9 38 -25 53 -24 23 -25 27 -25 170 0 143 1 147 25 170 16 15 25 34 25 54 0 25 21 51 133 163 l133 133 60 0 c54 0 62 3 87 31 26 30 30 31 79 25 48 -7 53 -5 84 25 l33 32 170 0 170 0 35 -31 c34 -30 36 -30 114 -25 79 6 80 6 107 -26 20 -22 37 -31 60 -31 22 0 40 -9 60 -30 20 -21 38 -30 60 -30 21 0 38 -9 57 -30 25 -29 30 -30 106 -30 l79 0 72 73 c70 72 71 72 71 127 0 55 0 56 -68 123 -50 49 -75 67 -94 67 -16 0 -42 13 -61 30 -19 17 -46 30 -59 30 -14 0 -39 13 -57 30 -29 28 -35 30 -82 24 -47 -6 -52 -5 -85 27 -34 33 -35 33 -117 30 -80 -2 -83 -1 -111 28 -21 22 -39 31 -62 31 -17 0 -37 6 -44 14 -8 11 -11 105 -10 356 0 246 -3 346 -11 356 -6 8 -26 14 -43 14 -23 0 -41 9 -61 30 -25 26 -36 30 -80 30 -50 0 -53 -1 -123 -72z"></path>
        <path d="M671 6398 c-23 -29 -27 -30 -79 -24 -51 6 -55 5 -82 -24 -18 -20 -38 -30 -57 -30 -23 0 -52 -23 -156 -128 -103 -103 -127 -133 -127 -156 0 -18 -10 -37 -30 -54 -20 -18 -30 -36 -30 -55 0 -19 -12 -43 -31 -65 -28 -31 -30 -39 -24 -79 7 -48 -12 -93 -40 -93 -13 0 -15 -258 -15 -2129 l0 -2129 24 -6 c28 -7 39 -40 30 -95 -5 -34 -2 -43 25 -71 20 -22 31 -43 31 -62 0 -21 9 -38 30 -56 21 -19 30 -36 30 -57 0 -25 17 -47 98 -128 82 -81 102 -97 129 -97 25 0 41 -11 83 -56 l51 -57 58 2 c51 1 60 -1 86 -29 l29 -30 511 0 511 0 42 43 42 43 0 110 0 110 -43 42 -44 43 -429 -1 -429 -2 -24 29 c-22 25 -30 28 -80 26 l-56 -3 -132 132 -133 133 0 85 c0 83 -1 87 -30 115 l-30 29 0 1936 0 1936 30 29 c29 28 30 32 30 115 l0 85 134 134 134 134 46 -6 c41 -6 49 -4 81 25 l36 31 424 -2 424 -2 46 42 45 42 0 110 0 111 -42 43 -42 43 -516 -1 -515 0 -24 -31z"></path>
      </g>
    </symbol>


    <symbol id="payments" xmlns="http://www.w3.org/2000/svg" fill="none" viewBox="0 0 24 24" stroke-width="1.5" stroke="currentColor">
  <path stroke-linecap="round" stroke-linejoin="round" d="M2.25 8.25h19.5M2.25 9h19.5m-16.5 5.25h6m-6 2.25h3m-3.75 3h15a2.25 2.25 0 0 0 2.25-2.25V6.75A2.25 2.25 0 0 0 19.5 4.5h-15a2.25 2.25 0 0 0-2.25 2.25v10.5A2.25 2.25 0 0 0 4.5 19.5Z" />
</symbol>


<symbol id="notif" xmlns="http://www.w3.org/2000/svg" fill="none" viewBox="0 0 24 24" stroke-width="1.5" stroke="currentColor" class="size-6">
  <path stroke-linecap="round" stroke-linejoin="round" d="M14.857 17.082a23.848 23.848 0 0 0 5.454-1.31A8.967 8.967 0 0 1 18 9.75V9A6 6 0 0 0 6 9v.75a8.967 8.967 0 0 1-2.312 6.022c1.733.64 3.56 1.085 5.455 1.31m5.714 0a24.255 24.255 0 0 1-5.714 0m5.714 0a3 3 0 1 1-5.714 0M3.124 7.5A8.969 8.969 0 0 1 5.292 3m13.416 0a8.969 8.969 0 0 1 2.168 4.5" />
</symbol>



    <!-- user profile -->

    <symbol id="logout" xmlns="http://www.w3.org/2000/svg" fill="none" viewBox="0 0 24 24" stroke-width="1.5"
      stroke="currentColor" class="size-6">
      <path stroke-linecap="round" stroke-linejoin="round"
        d="M8.25 9V5.25A2.25 2.25 0 0 1 10.5 3h6a2.25 2.25 0 0 1 2.25 2.25v13.5A2.25 2.25 0 0 1 16.5 21h-6a2.25 2.25 0 0 1-2.25-2.25V15m-3 0-3-3m0 0 3-3m-3 3H15" />
    </symbol>

    <symbol id="pencil" xmlns="http://www.w3.org/2000/svg" fill="none" viewBox="0 0 24 24" stroke-width="2"
      stroke="currentColor" class="size-6">
      <path stroke-linecap="round" stroke-linejoin="round"
        d="m16.862 4.487 1.687-1.688a1.875 1.875 0 1 1 2.652 2.652L6.832 19.82a4.5 4.5 0 0 1-1.897 1.13l-2.685.8.8-2.685a4.5 4.5 0 0 1 1.13-1.897L16.863 4.487Zm0 0L19.5 7.125" />
    </symbol>


    <symbol id="camera" xmlns="http://www.w3.org/2000/svg" fill="none" viewBox="0 0 24 24" stroke-width="1.5"
      stroke="currentColor" class="size-6">
      <path stroke-linecap="round" stroke-linejoin="round"
        d="M6.827 6.175A2.31 2.31 0 0 1 5.186 7.23c-.38.054-.757.112-1.134.175C2.999 7.58 2.25 8.507 2.25 9.574V18a2.25 2.25 0 0 0 2.25 2.25h15A2.25 2.25 0 0 0 21.75 18V9.574c0-1.067-.75-1.994-1.802-2.169a47.865 47.865 0 0 0-1.134-.175 2.31 2.31 0 0 1-1.64-1.055l-.822-1.316a2.192 2.192 0 0 0-1.736-1.039 48.774 48.774 0 0 0-5.232 0 2.192 2.192 0 0 0-1.736 1.039l-.821 1.316Z" />
      <path stroke-linecap="round" stroke-linejoin="round"
        d="M16.5 12.75a4.5 4.5 0 1 1-9 0 4.5 4.5 0 0 1 9 0ZM18.75 10.5h.008v.008h-.008V10.5Z" />
    </symbol>

    <symbol id="eye" xmlns="http://www.w3.org/2000/svg" fill="none" viewBox="0 0 24 24" stroke-width="1.5"
      stroke="currentColor" class="size-6">
      <path stroke-linecap="round" stroke-linejoin="round"
        d="M2.036 12.322a1.012 1.012 0 0 1 0-.639C3.423 7.51 7.36 4.5 12 4.5c4.638 0 8.573 3.007 9.963 7.178.07.207.07.431 0 .639C20.577 16.49 16.64 19.5 12 19.5c-4.638 0-8.573-3.007-9.963-7.178Z" />
      <path stroke-linecap="round" stroke-linejoin="round" d="M15 12a3 3 0 1 1-6 0 3 3 0 0 1 6 0Z" />
    </symbol>

    <symbol id="eye-slash" xmlns="http://www.w3.org/2000/svg" fill="none" viewBox="0 0 24 24" stroke-width="1.5"
      stroke="currentColor" class="size-6">
      <path stroke-linecap="round" stroke-linejoin="round"
        d="M3.98 8.223A10.477 10.477 0 0 0 1.934 12C3.226 16.338 7.244 19.5 12 19.5c.993 0 1.953-.138 2.863-.395M6.228 6.228A10.451 10.451 0 0 1 12 4.5c4.756 0 8.773 3.162 10.065 7.498a10.522 10.522 0 0 1-4.293 5.774M6.228 6.228 3 3m3.228 3.228 3.65 3.65m7.894 7.894L21 21m-3.228-3.228-3.65-3.65m0 0a3 3 0 1 0-4.243-4.243m4.242 4.242L9.88 9.88" />
    </symbol>


    <!-- user profile -->





<symbol id="share" xmlns="http://www.w3.org/2000/svg" fill="none" viewBox="0 0 24 24" stroke-width="1.5" stroke="currentColor" class="size-6">
  <path stroke-linecap="round" stroke-linejoin="round" d="M7.217 10.907a2.25 2.25 0 1 0 0 2.186m0-2.186c.18.324.283.696.283 1.093s-.103.77-.283 1.093m0-2.186 9.566-5.314m-9.566 7.5 9.566 5.314m0 0a2.25 2.25 0 1 0 3.935 2.186 2.25 2.25 0 0 0-3.935-2.186Zm0-12.814a2.25 2.25 0 1 0 3.933-2.185 2.25 2.25 0 0 0-3.933 2.185Z" />
</symbol>

<symbol id="tweeter" class="fill-primary" viewBox="0 0 24 24" fill="none" xmlns="http://www.w3.org/2000/svg">
<g clip-path="url(#clip0_472_5549)"><path d="M7.55016 21.7507C16.6045 21.7507 21.5583 14.2474 21.5583 7.74259C21.5583 7.53166 21.5536 7.31603 21.5442 7.10509C22.5079 6.40819 23.3395 5.54499 24 4.55603C23.1025 4.95533 22.1496 5.21611 21.1739 5.32947C22.2013 4.71364 22.9705 3.7462 23.3391 2.6065C22.3726 3.17929 21.3156 3.58334 20.2134 3.80134C19.4708 3.01229 18.489 2.48985 17.4197 2.31478C16.3504 2.13972 15.2532 2.32178 14.2977 2.83283C13.3423 3.34387 12.5818 4.15544 12.1338 5.14204C11.6859 6.12865 11.5754 7.23535 11.8195 8.29103C9.86249 8.19282 7.94794 7.68444 6.19998 6.79883C4.45203 5.91323 2.90969 4.67017 1.67297 3.15025C1.0444 4.23398 0.852057 5.51638 1.13503 6.73682C1.418 7.95727 2.15506 9.02418 3.19641 9.72072C2.41463 9.6959 1.64998 9.48541 0.965625 9.10666V9.16759C0.964925 10.3049 1.3581 11.4073 2.07831 12.2875C2.79852 13.1677 3.80132 13.7713 4.91625 13.9957C4.19206 14.1939 3.43198 14.2227 2.69484 14.0801C3.00945 15.0582 3.62157 15.9136 4.44577 16.5271C5.26997 17.1405 6.26512 17.4813 7.29234 17.502C5.54842 18.8718 3.39417 19.6149 1.17656 19.6113C0.783287 19.6107 0.390399 19.5866 0 19.5392C2.25286 20.9845 4.87353 21.7521 7.55016 21.7507Z" ></path></g>
    <defs><clipPath id="clip0_472_5549"><rect width="24" height="24" fill="white"></rect></clipPath></defs>
</symbol>

<symbol  id="facebook" class="fill-primary" viewBox="0 0 24 24" fill="none" xmlns="http://www.w3.org/2000/svg"><g clip-path="url(#clip0_472_5551)"><path d="M24 12C24 5.37258 18.6274 0 12 0C5.37258 0 0 5.37258 0 12C0 17.9895 4.3882 22.954 10.125 23.8542V15.4688H7.07812V12H10.125V9.35625C10.125 6.34875 11.9166 4.6875 14.6576 4.6875C15.9701 4.6875 17.3438 4.92188 17.3438 4.92188V7.875H15.8306C14.34 7.875 13.875 8.80008 13.875 9.75V12H17.2031L16.6711 15.4688H13.875V23.8542C19.6118 22.954 24 17.9895 24 12Z"></path>
    </g><defs> <clipPath id="clip0_472_5551"><rect width="24" height="24" fill="white"></rect></clipPath></defs>
</symbol>

<symbol id="instagram" class="fill-primary" viewBox="0 0 24 24" fill="none" xmlns="http://www.w3.org/2000/svg"> 
<path d="M12 2.16094C15.2063 2.16094 15.5859 2.175 16.8469 2.23125C18.0188 2.28281 18.6516 2.47969 19.0734 2.64375C19.6313 2.85938 20.0344 3.12188 20.4516 3.53906C20.8734 3.96094 21.1313 4.35938 21.3469 4.91719C21.5109 5.33906 21.7078 5.97656 21.7594 7.14375C21.8156 8.40937 21.8297 8.78906 21.8297 11.9906C21.8297 15.1969 21.8156 15.5766 21.7594 16.8375C21.7078 18.0094 21.5109 18.6422 21.3469 19.0641C21.1313 19.6219 20.8687 20.025 20.4516 20.4422C20.0297 20.8641 19.6313 21.1219 19.0734 21.3375C18.6516 21.5016 18.0141 21.6984 16.8469 21.75C15.5813 21.8062 15.2016 21.8203 12 21.8203C8.79375 21.8203 8.41406 21.8062 7.15313 21.75C5.98125 21.6984 5.34844 21.5016 4.92656 21.3375C4.36875 21.1219 3.96563 20.8594 3.54844 20.4422C3.12656 20.0203 2.86875 19.6219 2.65313 19.0641C2.48906 18.6422 2.29219 18.0047 2.24063 16.8375C2.18438 15.5719 2.17031 15.1922 2.17031 11.9906C2.17031 8.78438 2.18438 8.40469 2.24063 7.14375C2.29219 5.97187 2.48906 5.33906 2.65313 4.91719C2.86875 4.35938 3.13125 3.95625 3.54844 3.53906C3.97031 3.11719 4.36875 2.85938 4.92656 2.64375C5.34844 2.47969 5.98594 2.28281 7.15313 2.23125C8.41406 2.175 8.79375 2.16094 12 2.16094ZM12 0C8.74219 0 8.33438 0.0140625 7.05469 0.0703125C5.77969 0.126563 4.90313 0.332812 4.14375 0.628125C3.35156 0.9375 2.68125 1.34531 2.01563 2.01562C1.34531 2.68125 0.9375 3.35156 0.628125 4.13906C0.332812 4.90313 0.126563 5.775 0.0703125 7.05C0.0140625 8.33437 0 8.74219 0 12C0 15.2578 0.0140625 15.6656 0.0703125 16.9453C0.126563 18.2203 0.332812 19.0969 0.628125 19.8563C0.9375 20.6484 1.34531 21.3188 2.01563 21.9844C2.68125 22.65 3.35156 23.0625 4.13906 23.3672C4.90313 23.6625 5.775 23.8687 7.05 23.925C8.32969 23.9812 8.7375 23.9953 11.9953 23.9953C15.2531 23.9953 15.6609 23.9812 16.9406 23.925C18.2156 23.8687 19.0922 23.6625 19.8516 23.3672C20.6391 23.0625 21.3094 22.65 21.975 21.9844C22.6406 21.3188 23.0531 20.6484 23.3578 19.8609C23.6531 19.0969 23.8594 18.225 23.9156 16.95C23.9719 15.6703 23.9859 15.2625 23.9859 12.0047C23.9859 8.74688 23.9719 8.33906 23.9156 7.05938C23.8594 5.78438 23.6531 4.90781 23.3578 4.14844C23.0625 3.35156 22.6547 2.68125 21.9844 2.01562C21.3188 1.35 20.6484 0.9375 19.8609 0.632812C19.0969 0.3375 18.225 0.13125 16.95 0.075C15.6656 0.0140625 15.2578 0 12 0Z" ></path> <path d="M12 5.83594C8.59688 5.83594 5.83594 8.59688 5.83594 12C5.83594 15.4031 8.59688 18.1641 12 18.1641C15.4031 18.1641 18.1641 15.4031 18.1641 12C18.1641 8.59688 15.4031 5.83594 12 5.83594ZM12 15.9984C9.79219 15.9984 8.00156 14.2078 8.00156 12C8.00156 9.79219 9.79219 8.00156 12 8.00156C14.2078 8.00156 15.9984 9.79219 15.9984 12C15.9984 14.2078 14.2078 15.9984 12 15.9984Z" ></path> <path d="M19.8469 5.59141C19.8469 6.38828 19.2 7.03047 18.4078 7.03047C17.6109 7.03047 16.9688 6.3836 16.9688 5.59141C16.9688 4.79453 17.6156 4.15234 18.4078 4.15234C19.2 4.15234 19.8469 4.79922 19.8469 5.59141Z" ></path> 
</symbol>


<symbol id="telegram" class="fill-primary" viewBox="0 0 24 24" fill="none" xmlns="http://www.w3.org/2000/svg"> <g clip-path="url(#clip0_472_5558)"> 
<path fill-rule="evenodd" clip-rule="evenodd" d="M24 12C24 18.6274 18.6274 24 12 24C5.37258 24 0 18.6274 0 12C0 5.37258 5.37258 0 12 0C18.6274 0 24 5.37258 24 12ZM12.43 8.85893C11.2628 9.3444 8.93014 10.3492 5.43189 11.8733C4.86383 12.0992 4.56626 12.3202 4.53917 12.5363C4.49339 12.9015 4.95071 13.0453 5.57347 13.2411C5.65818 13.2678 5.74595 13.2954 5.83594 13.3246C6.44864 13.5238 7.27283 13.7568 7.70129 13.766C8.08994 13.7744 8.52373 13.6142 9.00264 13.2853C12.2712 11.079 13.9584 9.96381 14.0643 9.93977C14.139 9.92281 14.2426 9.90148 14.3128 9.96385C14.3829 10.0262 14.376 10.1443 14.3686 10.176C14.3233 10.3691 12.5281 12.0381 11.5991 12.9018C11.3095 13.171 11.1041 13.362 11.0621 13.4056C10.968 13.5033 10.8721 13.5958 10.78 13.6846C10.2108 14.2333 9.78391 14.6448 10.8036 15.3168C11.2936 15.6397 11.6858 15.9067 12.0769 16.1731C12.5042 16.4641 12.9303 16.7543 13.4816 17.1157C13.6221 17.2077 13.7562 17.3034 13.8869 17.3965C14.3841 17.751 14.8307 18.0694 15.3826 18.0186C15.7032 17.9891 16.0345 17.6876 16.2027 16.7884C16.6002 14.6631 17.3816 10.0585 17.5622 8.16097C17.578 7.99473 17.5581 7.78197 17.5422 7.68857C17.5262 7.59518 17.4928 7.46211 17.3714 7.3636C17.2276 7.24694 17.0056 7.22234 16.9064 7.22408C16.455 7.23203 15.7626 7.47282 12.43 8.85893Z" >
</path> </g> <defs> <clipPath id="clip0_472_5558"> <rect width="24" height="24" fill="white"></rect> </clipPath> </defs> 
</symbol>


<svg id="copy" xmlns="http://www.w3.org/2000/svg" fill="none" viewBox="0 0 24 24" stroke-width="1.5" stroke="currentColor" class="size-6">
  <path stroke-linecap="round" stroke-linejoin="round" d="M15.75 17.25v3.375c0 .621-.504 1.125-1.125 1.125h-9.75a1.125 1.125 0 0 1-1.125-1.125V7.875c0-.621.504-1.125 1.125-1.125H6.75a9.06 9.06 0 0 1 1.5.124m7.5 10.376h3.375c.621 0 1.125-.504 1.125-1.125V11.25c0-4.46-3.243-8.161-7.5-8.876a9.06 9.06 0 0 0-1.5-.124H9.375c-.621 0-1.125.504-1.125 1.125v3.5m7.5 10.375H9.375a1.125 1.125 0 0 1-1.125-1.125v-9.25m12 6.625v-1.875a3.375 3.375 0 0 0-3.375-3.375h-1.5a1.125 1.125 0 0 1-1.125-1.125v-1.5a3.375 3.375 0 0 0-3.375-3.375H9.75" />
</svg>



    <!-- contact us -->

    <symbol id="call" version="1.0" xmlns="http://www.w3.org/2000/svg" viewBox="0 0 146.000000 170.000000"
      preserveAspectRatio="xMidYMid meet">
      <g transform="translate(0.000000,170.000000) scale(0.100000,-0.100000)" >
        <path
          d="M990 1512 c-46 -7 -86 -49 -133 -139 -41 -81 -49 -104 -61 -173 -6 -40 18 -96 63 -145 22 -24 41 -47 41 -50 0 -4 -12 -27 -27 -53 -86 -148 -199 -302 -222 -302 -9 0 -44 10 -78 22 -60 21 -63 21 -108 4 -94 -36 -223 -157 -254 -239 -23 -59 12 -130 91 -187 56 -41 101 -53 171 -47 94 8 174 55 296 172 159 153 271 304 361 490 160 327 158 536 -6 619 -40 20 -102 33 -134 28z m111 -79 c134 -69 131 -232 -11 -530 -122 -256 -362 -540 -525 -618 -104 -50 -167 -44 -256 26 -54 43 -65 77 -41 125 38 75 185 194 238 194 10 0 45 -9 79 -21 77 -26 99 -18 156 53 55 69 154 220 186 282 31 61 26 84 -34 150 -44 49 -45 52 -41 107 5 63 63 195 104 236 31 31 77 30 145 -4z" />
      </g>
    </symbol>


    <symbol id="telegram" xmlns="http://www.w3.org/2000/svg" xmlns:xlink="http://www.w3.org/1999/xlink" ><defs><linearGradient id="linear-gradient" x1="120" y1="240" x2="120" gradientUnits="userSpaceOnUse">
    <stop offset="0" stop-color="#1d93d2"/><stop offset="1" stop-color="#38b0e3"/></linearGradient></defs><title></title><circle cx="120" cy="120" r="120" fill="url(#linear-gradient)"/><path d="M81.229,128.772l14.237,39.406s1.78,3.687,3.686,3.687,30.255-29.492,30.255-29.492l31.525-60.89L81.737,118.6Z" fill="#c8daea"/><path d="M100.106,138.878l-2.733,29.046s-1.144,8.9,7.754,0,17.415-15.763,17.415-15.763" fill="#a9c6d8"/>
    <path d="M81.486,130.178,52.2,120.636s-3.5-1.42-2.373-4.64c.232-.664.7-1.229,2.1-2.2,6.489-4.523,120.106-45.36,120.106-45.36s3.208-1.081,5.1-.362a2.766,2.766,0,0,1,1.885,2.055,9.357,9.357,0,0,1,.254,2.585c-.009.752-.1,1.449-.169,2.542-.692,11.165-21.4,94.493-21.4,94.493s-1.239,4.876-5.678,5.043A8.13,8.13,0,0,1,146.1,172.5c-8.711-7.493-38.819-27.727-45.472-32.177a1.27,1.27,0,0,1-.546-.9c-.093-.469.417-1.05.417-1.05s52.426-46.6,53.821-51.492c.108-.379-.3-.566-.848-.4-3.482,1.281-63.844,39.4-70.506,43.607A3.21,3.21,0,0,1,81.486,130.178Z" fill="#fff"/>
    </symbol>



    <symbol id="instagram" xmlns="http://www.w3.org/2000/svg" xmlns:xlink="http://www.w3.org/1999/xlink" >
	    <defs>
		    <linearGradient id="b">
			    <stop offset="0" stop-color="#3771c8"/>
			    <stop stop-color="#3771c8" offset=".128"/>
			    <stop offset="1" stop-color="#60f" stop-opacity="0"/>
		    </linearGradient>
		    <linearGradient id="a">
			    <stop offset="0" stop-color="#fd5"/>
			    <stop offset=".1" stop-color="#fd5"/>
			    <stop offset=".5" stop-color="#ff543e"/>
			    <stop offset="1" stop-color="#c837ab"/>
		    </linearGradient>
	    	<radialGradient id="c" cx="158.429" cy="578.088" r="65" xlink:href="#a" gradientUnits="userSpaceOnUse" gradientTransform="matrix(0 -1.98198 1.8439 0 -1031.402 454.004)" fx="158.429" fy="578.088"/>
	    	<radialGradient id="d" cx="147.694" cy="473.455" r="65" xlink:href="#b" gradientUnits="userSpaceOnUse" gradientTransform="matrix(.17394 .86872 -3.5818 .71718 1648.348 -458.493)" fx="147.694" fy="473.455"/>
	    </defs>
	    <path fill="url(#c)" d="M65.03 0C37.888 0 29.95.028 28.407.156c-5.57.463-9.036 1.34-12.812 3.22-2.91 1.445-5.205 3.12-7.47 5.468C4 13.126 1.5 18.394.595 24.656c-.44 3.04-.568 3.66-.594 19.188-.01 5.176 0 11.988 0 21.125 0 27.12.03 35.05.16 36.59.45 5.42 1.3 8.83 3.1 12.56 3.44 7.14 10.01 12.5 17.75 14.5 2.68.69 5.64 1.07 9.44 1.25 1.61.07 18.02.12 34.44.12 16.42 0 32.84-.02 34.41-.1 4.4-.207 6.955-.55 9.78-1.28 7.79-2.01 14.24-7.29 17.75-14.53 1.765-3.64 2.66-7.18 3.065-12.317.088-1.12.125-18.977.125-36.81 0-17.836-.04-35.66-.128-36.78-.41-5.22-1.305-8.73-3.127-12.44-1.495-3.037-3.155-5.305-5.565-7.624C116.9 4 111.64 1.5 105.372.596 102.335.157 101.73.027 86.19 0H65.03z" transform="translate(1.004 1)"/>
	    <path fill="url(#d)" d="M65.03 0C37.888 0 29.95.028 28.407.156c-5.57.463-9.036 1.34-12.812 3.22-2.91 1.445-5.205 3.12-7.47 5.468C4 13.126 1.5 18.394.595 24.656c-.44 3.04-.568 3.66-.594 19.188-.01 5.176 0 11.988 0 21.125 0 27.12.03 35.05.16 36.59.45 5.42 1.3 8.83 3.1 12.56 3.44 7.14 10.01 12.5 17.75 14.5 2.68.69 5.64 1.07 9.44 1.25 1.61.07 18.02.12 34.44.12 16.42 0 32.84-.02 34.41-.1 4.4-.207 6.955-.55 9.78-1.28 7.79-2.01 14.24-7.29 17.75-14.53 1.765-3.64 2.66-7.18 3.065-12.317.088-1.12.125-18.977.125-36.81 0-17.836-.04-35.66-.128-36.78-.41-5.22-1.305-8.73-3.127-12.44-1.495-3.037-3.155-5.305-5.565-7.624C116.9 4 111.64 1.5 105.372.596 102.335.157 101.73.027 86.19 0H65.03z" transform="translate(1.004 1)"/>
	    <path fill="#fff" d="M66.004 18c-13.036 0-14.672.057-19.792.29-5.11.234-8.598 1.043-11.65 2.23-3.157 1.226-5.835 2.866-8.503 5.535-2.67 2.668-4.31 5.346-5.54 8.502-1.19 3.053-2 6.542-2.23 11.65C18.06 51.327 18 52.964 18 66s.058 14.667.29 19.787c.235 5.11 1.044 8.598 2.23 11.65 1.227 3.157 2.867 5.835 5.536 8.503 2.667 2.67 5.345 4.314 8.5 5.54 3.054 1.187 6.543 1.996 11.652 2.23 5.12.233 6.755.29 19.79.29 13.037 0 14.668-.057 19.788-.29 5.11-.234 8.602-1.043 11.656-2.23 3.156-1.226 5.83-2.87 8.497-5.54 2.67-2.668 4.31-5.346 5.54-8.502 1.18-3.053 1.99-6.542 2.23-11.65.23-5.12.29-6.752.29-19.788 0-13.036-.06-14.672-.29-19.792-.24-5.11-1.05-8.598-2.23-11.65-1.23-3.157-2.87-5.835-5.54-8.503-2.67-2.67-5.34-4.31-8.5-5.535-3.06-1.187-6.55-1.996-11.66-2.23-5.12-.233-6.75-.29-19.79-.29zm-4.306 8.65c1.278-.002 2.704 0 4.306 0 12.816 0 14.335.046 19.396.276 4.68.214 7.22.996 8.912 1.653 2.24.87 3.837 1.91 5.516 3.59 1.68 1.68 2.72 3.28 3.592 5.52.657 1.69 1.44 4.23 1.653 8.91.23 5.06.28 6.58.28 19.39s-.05 14.33-.28 19.39c-.214 4.68-.996 7.22-1.653 8.91-.87 2.24-1.912 3.835-3.592 5.514-1.68 1.68-3.275 2.72-5.516 3.59-1.69.66-4.232 1.44-8.912 1.654-5.06.23-6.58.28-19.396.28-12.817 0-14.336-.05-19.396-.28-4.68-.216-7.22-.998-8.913-1.655-2.24-.87-3.84-1.91-5.52-3.59-1.68-1.68-2.72-3.276-3.592-5.517-.657-1.69-1.44-4.23-1.653-8.91-.23-5.06-.276-6.58-.276-19.398s.046-14.33.276-19.39c.214-4.68.996-7.22 1.653-8.912.87-2.24 1.912-3.84 3.592-5.52 1.68-1.68 3.28-2.72 5.52-3.592 1.692-.66 4.233-1.44 8.913-1.655 4.428-.2 6.144-.26 15.09-.27zm29.928 7.97c-3.18 0-5.76 2.577-5.76 5.758 0 3.18 2.58 5.76 5.76 5.76 3.18 0 5.76-2.58 5.76-5.76 0-3.18-2.58-5.76-5.76-5.76zm-25.622 6.73c-13.613 0-24.65 11.037-24.65 24.65 0 13.613 11.037 24.645 24.65 24.645C79.617 90.645 90.65 79.613 90.65 66S79.616 41.35 66.003 41.35zm0 8.65c8.836 0 16 7.163 16 16 0 8.836-7.164 16-16 16-8.837 0-16-7.164-16-16 0-8.837 7.163-16 16-16z"/>
    </symbol>

    <!-- contact us -->


</svg>




