<svg xmlns="http://www.w3.org/2000/svg" width="800.526" height="526.597" viewBox="0 0 800.526 526.597">
  <g id="lines" transform="translate(-20 -2291)">
    <path id="Path_1556" data-name="Path 1556" d="M58.928,414.544c2.675,0,4.891,4.6,7.566,4.6s4.891-4.6,7.566-4.6,4.891,4.6,7.566,4.6,4.89-4.6,7.565-4.6,4.891,4.6,7.566,4.6,4.891-4.6,7.565-4.6,4.891,4.6,7.566,4.6,4.891-4.6,7.566-4.6" transform="translate(111.072 2397.456)" fill="none" stroke="#54ab58" stroke-miterlimit="10" stroke-width="2"/>
    <path id="Path_1564" data-name="Path 1564" d="M58.928,414.544c2.675,0,4.891,4.6,7.566,4.6s4.891-4.6,7.566-4.6,4.891,4.6,7.566,4.6,4.89-4.6,7.565-4.6,4.891,4.6,7.566,4.6,4.891-4.6,7.565-4.6,4.891,4.6,7.566,4.6,4.891-4.6,7.566-4.6" transform="translate(-38.928 2137.456)" fill="none" stroke="#54ab58" stroke-miterlimit="10" stroke-width="2"/>
    <path id="Path_1561" data-name="Path 1561" d="M58.928,414.544c2.675,0,4.891,4.6,7.566,4.6s4.891-4.6,7.566-4.6,4.891,4.6,7.566,4.6,4.89-4.6,7.565-4.6,4.891,4.6,7.566,4.6,4.891-4.6,7.565-4.6,4.891,4.6,7.566,4.6,4.891-4.6,7.566-4.6" transform="translate(701.072 1957.456)" fill="none" stroke="#f1f1f1" stroke-miterlimit="10" stroke-width="2"/>
    <path id="Path_1557" data-name="Path 1557" d="M58.928,414.544c2.675,0,4.891,4.6,7.566,4.6s4.891-4.6,7.566-4.6,4.891,4.6,7.566,4.6,4.89-4.6,7.565-4.6,4.891,4.6,7.566,4.6,4.891-4.6,7.565-4.6,4.891,4.6,7.566,4.6,4.891-4.6,7.566-4.6" transform="translate(201.072 1877.456)" fill="none" stroke="#dcdcdc" stroke-miterlimit="10" stroke-width="2"/>
    <path id="Path_1558" data-name="Path 1558" d="M58.928,414.544c2.675,0,4.891,4.6,7.566,4.6s4.891-4.6,7.566-4.6,4.891,4.6,7.566,4.6,4.89-4.6,7.565-4.6,4.891,4.6,7.566,4.6,4.891-4.6,7.565-4.6,4.891,4.6,7.566,4.6,4.891-4.6,7.566-4.6" transform="translate(371.072 2047.456)" fill="none" stroke="#fa9908" stroke-miterlimit="10" stroke-width="2"/>
    <path id="Path_1560" data-name="Path 1560" d="M58.928,414.544c2.675,0,4.891,4.6,7.566,4.6s4.891-4.6,7.566-4.6,4.891,4.6,7.566,4.6,4.89-4.6,7.565-4.6,4.891,4.6,7.566,4.6,4.891-4.6,7.565-4.6,4.891,4.6,7.566,4.6,4.891-4.6,7.566-4.6" transform="translate(311.072 2207.456)" fill="none" stroke="#d5d5d5" stroke-miterlimit="10" stroke-width="2"/>
    <path id="Path_1559" data-name="Path 1559" d="M58.928,414.544c2.675,0,4.891,4.6,7.566,4.6s4.891-4.6,7.566-4.6,4.891,4.6,7.566,4.6,4.89-4.6,7.565-4.6,4.891,4.6,7.566,4.6,4.891-4.6,7.565-4.6,4.891,4.6,7.566,4.6,4.891-4.6,7.566-4.6" transform="translate(541.072 2317.456)" fill="none" stroke="#9b9b9b" stroke-miterlimit="10" stroke-width="2"/>
  </g>
</svg>
